<svg xmlns="http://www.w3.org/2000/svg" style="isolation:isolate" viewBox="484.301 283.453 205.523 26.297" width="205.523" height="26.297"><path d="M605.291 302.684q0-1.565-.8-2.365-.8-.799-2.909-1.661-3.85-1.459-5.537-3.419-1.688-1.96-1.688-4.632 0-3.234 2.294-5.194t5.828-1.96q2.355 0 4.201.993 1.845.993 2.839 2.804.993 1.811.993 4.113h-5.151q0-1.793-.764-2.733-.765-.941-2.206-.941-1.354 0-2.11.8-.756.8-.756 2.154 0 1.054.844 1.907.844.852 2.988 1.766 3.745 1.354 5.441 3.323 1.696 1.968 1.696 5.009 0 3.34-2.127 5.221-2.127 1.881-5.783 1.881-2.479 0-4.518-1.02-2.039-1.019-3.19-2.917-1.151-1.899-1.151-4.483h5.185q0 2.215.861 3.217.862 1.002 2.813 1.002 2.707 0 2.707-2.865zm25.207-18.879v4.306h-6.328v21.287h-5.186v-21.287h-6.222v-4.306h17.736zm20.988 10.722v4.377q0 5.151-2.434 7.998-2.435 2.848-6.759 2.848-4.307 0-6.768-2.821-2.461-2.822-2.496-7.902v-4.377q0-5.273 2.444-8.235 2.443-2.962 6.785-2.962 4.271 0 6.732 2.909 2.461 2.909 2.496 8.165zm-5.185 4.536v-4.448q0-3.463-.985-5.15-.984-1.688-3.058-1.688-2.057 0-3.041 1.626-.985 1.626-1.02 4.949v4.552q0 3.358 1.002 4.949 1.002 1.59 3.094 1.59 2.021 0 3.006-1.555.984-1.556 1.002-4.825zm20.496 10.335l-3.85-9.351h-2.566v9.351h-5.168v-25.593h8.244q3.885 0 6.003 2.012 2.118 2.013 2.118 5.722 0 5.098-3.709 7.137l4.483 10.476v.246h-5.555zm-6.416-21.287v7.629h2.935q1.547 0 2.321-1.028.773-1.028.773-2.751 0-3.85-3.006-3.85h-3.023zm27.967 6.047v4.166h-8.051v6.785h9.527v4.289h-14.695v-25.593h14.66v4.306h-9.492v6.047h8.051zm-192.481 8.526q0-1.565-.8-2.365-.799-.799-2.909-1.661-3.849-1.459-5.537-3.419-1.687-1.96-1.687-4.632 0-3.234 2.294-5.194 2.293-1.96 5.827-1.96 2.355 0 4.201.993 1.846.993 2.839 2.804.993 1.811.993 4.113h-5.15q0-1.793-.765-2.733-.765-.941-2.206-.941-1.354 0-2.11.8-.755.8-.755 2.154 0 1.054.843 1.907.844.852 2.989 1.766 3.744 1.354 5.44 3.323 1.696 1.968 1.696 5.009 0 3.34-2.127 5.221-2.127 1.881-5.783 1.881-2.478 0-4.517-1.02-2.039-1.019-3.191-2.917-1.151-1.899-1.151-4.483h5.185q0 2.215.862 3.217.861 1.002 2.812 1.002 2.707 0 2.707-2.865zm17.244-2.286h-3.445v9h-5.168v-25.593h8.719q3.797 0 6.055 2.355 2.259 2.356 2.259 6.117 0 3.762-2.232 5.942-2.233 2.179-6.188 2.179zm-3.445-12.287v7.981h3.551q1.476 0 2.285-.967.809-.967.809-2.812 0-1.917-.827-3.05-.826-1.134-2.214-1.152h-3.604zm33.328 6.416v4.377q0 5.151-2.434 7.998-2.435 2.848-6.759 2.848-4.307 0-6.768-2.821-2.461-2.822-2.496-7.902v-4.377q0-5.273 2.443-8.235 2.444-2.962 6.786-2.962 4.271 0 6.732 2.909 2.461 2.909 2.496 8.165zm-5.185 4.536v-4.448q0-3.463-.985-5.15-.984-1.688-3.058-1.688-2.057 0-3.041 1.626-.985 1.626-1.02 4.949v4.552q0 3.358 1.002 4.949 1.002 1.59 3.094 1.59 2.021 0 3.006-1.555.984-1.556 1.002-4.825zm20.496 10.335l-3.85-9.351h-2.566v9.351h-5.168v-25.593h8.244q3.885 0 6.003 2.012 2.118 2.013 2.118 5.722 0 5.098-3.709 7.137l4.482 10.476v.246h-5.554zm-6.416-21.287v7.629h2.935q1.547 0 2.321-1.028.773-1.028.773-2.751 0-3.85-3.006-3.85h-3.023zm31.324-4.306v4.306h-6.328v21.287h-5.186v-21.287h-6.222v-4.306h17.736z" fill-rule="evenodd" fill="#FFF"/></svg>