<svg xmlns="http://www.w3.org/2000/svg" style="isolation:isolate" viewBox="0 0 177 28" width="177" height="28"><defs><clipPath id="a"><path d="M0 0h177v28H0z"/></clipPath></defs><g clip-path="url(#a)"><path d="M92.504 16.296q.456.36 1.572.984t2.136.624q1.02 0 1.02-.792 0-.36-.288-.636t-1.056-.636q-.768-.36-1.152-.564-.384-.204-1.02-.672-.636-.468-.972-.972-.96-1.368-.96-3.48t1.572-3.564q1.572-1.452 4.116-1.452 1.728 0 3.192.372 1.464.372 1.512.972v.144q0 .84-.528 2.124-.528 1.284-.744 1.428-1.536-.792-2.748-.792-1.212 0-1.212.864 0 .528.888.936.192.096.552.264.36.168.828.396.468.228 1.008.576t1.164.924q1.272 1.2 1.272 3.168 0 2.568-1.416 4.2-1.416 1.632-4.368 1.68-1.44 0-2.604-.24-1.164-.24-2.028-.936-.864-.696-.864-1.68t.36-1.956q.36-.972.768-1.284zm19.344-6.576v12.048q0 .48-2.376.48t-2.376-.48V9.72h-2.88q-.408 0-.576-1.104-.072-.528-.072-1.08t.072-1.08q.168-1.104.576-1.104h10.44q.408 0 .576 1.104.072.528.072 1.08t-.072 1.08q-.168 1.104-.576 1.104h-2.808zm11.964 12.672q-3.372 0-5.496-2.208-2.124-2.208-2.124-6.444t2.148-6.42q2.148-2.184 5.544-2.184 3.396 0 5.484 2.148t2.088 6.504q0 4.356-2.136 6.48-2.136 2.124-5.508 2.124zm.012-12.648q-1.152 0-1.932 1.056t-.78 2.964q0 1.908.744 2.928t1.956 1.02q1.212 0 1.968-1.032t.756-2.952q0-1.92-.78-2.952t-1.932-1.032zm14.136 6.624v5.448q0 .384-2.28.384-2.304 0-2.304-.36V6.192q0-.84.888-.84h4.584q6.312 0 6.312 4.92 0 1.488-.576 2.7-.576 1.212-1.632 1.932l3.024 5.04q-.192.576-1.248 1.32-1.44 1.032-2.376 1.032-.936 0-1.392-.672l-2.256-5.256h-.744zm.504-6.768h-.504v3.6h.12q2.28 0 2.28-1.896 0-.864-.444-1.284-.444-.42-1.452-.42zm13.776 2.424h3.096q.456 0 .456 1.68 0 .504-.108 1.188-.108.684-.396.684h-3.048v2.4h4.416q.408 0 .552 1.056.072.456.072.972t-.144 1.332q-.144.816-.48.816h-8.208q-.912 0-.912-.744V5.976q0-.624.552-.624h8.592q.504 0 .504 2.124T156.68 9.6h-4.44v2.424zM18.656 16.296q.456.36 1.572.984t2.136.624q1.02 0 1.02-.792 0-.36-.288-.636t-1.056-.636q-.768-.36-1.152-.564-.384-.204-1.02-.672-.636-.468-.972-.972-.96-1.368-.96-3.48t1.572-3.564q1.572-1.452 4.116-1.452 1.728 0 3.192.372 1.464.372 1.512.972v.144q0 .84-.528 2.124-.528 1.284-.744 1.428-1.536-.792-2.748-.792-1.212 0-1.212.864 0 .528.888.936.192.096.552.264.36.168.828.396.468.228 1.008.576t1.164.924q1.272 1.2 1.272 3.168 0 2.568-1.416 4.2-1.416 1.632-4.368 1.68-1.44 0-2.604-.24-1.164-.24-2.028-.936-.864-.696-.864-1.68t.36-1.956q.36-.972.768-1.284zM32.864 22.2q-2.184 0-2.184-.48V6.168q0-.816.744-.816h4.224q3.552 0 5.124 1.464 1.572 1.464 1.572 4.248 0 2.304-1.488 4.224-.744.96-2.184 1.536-1.44.576-3.36.576v4.296q0 .288-.9.396-.9.108-1.548.108zm2.952-12.672h-.504v3.792h.312q.84 0 1.416-.528t.576-1.488q0-.96-.396-1.368-.396-.408-1.404-.408zm15.78 12.864q-3.372 0-5.496-2.208-2.124-2.208-2.124-6.444t2.148-6.42q2.148-2.184 5.544-2.184 3.396 0 5.484 2.148t2.088 6.504q0 4.356-2.136 6.48-2.136 2.124-5.508 2.124zm.012-12.648q-1.152 0-1.932 1.056t-.78 2.964q0 1.908.744 2.928t1.956 1.02q1.212 0 1.968-1.032t.756-2.952q0-1.92-.78-2.952t-1.932-1.032zm14.136 6.624v5.448q0 .384-2.28.384-2.304 0-2.304-.36V6.192q0-.84.888-.84h4.584q6.312 0 6.312 4.92 0 1.488-.576 2.7-.576 1.212-1.632 1.932l3.024 5.04q-.192.576-1.248 1.32-1.44 1.032-2.376 1.032-.936 0-1.392-.672l-2.256-5.256h-.744zm.504-6.768h-.504v3.6h.12q2.28 0 2.28-1.896 0-.864-.444-1.284-.444-.42-1.452-.42zm16.296.12v12.048q0 .48-2.376.48t-2.376-.48V9.72h-2.88q-.408 0-.576-1.104-.072-.528-.072-1.08t.072-1.08q.168-1.104.576-1.104h10.44q.408 0 .576 1.104.072.528.072 1.08t-.072 1.08q-.168 1.104-.576 1.104h-2.808z" fill-rule="evenodd"/></g></svg>