<?xml version="1.0" ?><svg enable-background="new 0 0 52 52" id="Layer_1" version="1.1" viewBox="0 0 52 52" xml:space="preserve" xmlns="http://www.w3.org/2000/svg" xmlns:xlink="http://www.w3.org/1999/xlink"><g><g><path d="M23.3591785,21.8026733c0,0.5389404,0.1494141,0.9649658,0.4477539,1.2786255    c0.2987671,0.3136597,0.8654175,0.6149902,1.7017212,0.9046021v-4.173584    c-0.671875,0.0643311-1.197937,0.2773438-1.5783081,0.6390991C23.5495472,20.8136597,23.3591785,21.2637329,23.3591785,21.8026733    z"/></g><g><path d="M26.941637,27.3633423v4.3428955c0.7164917-0.0805054,1.2835693-0.3052979,1.7012329-0.6759033    c0.4177246-0.3695679,0.6272583-0.8358765,0.6272583-1.3988647s-0.1644287-1.0091553-0.4928589-1.3389893    S27.8371449,27.6529541,26.941637,27.3633423z"/></g><g><path d="M49.9999275,9.4400024L49.979908,8.4299927L48.9598885,8.460022    c-8.1199951,0.2999878-22.3999653-6.2800293-22.5399799-6.3400269l-0.4199829-0.2000122l-0.4200439,0.2000122    C25.4399281,2.1799927,11.1598988,8.7600098,3.0399039,8.460022L2.0298941,8.4299927L1.9999259,9.4400024    c0,0.3200073-0.5300293,32.0700073,23.5700073,40.5299683l0.3299561,0.1100464l0.3300171-0.1100464    C50.3199348,41.5100098,50.0098763,9.7600098,49.9999275,9.4400024z M30.61339,32.8400879    c-0.9255981,0.8844604-2.1494751,1.3669434-3.6717529,1.4474487v1.7370605h-1.4329834v-1.7611084    c-2.045166-0.2252808-3.8807983-1.1014404-5.5073853-2.6298828l1.6342773-2.0988159    c1.25354,1.1740723,2.5444336,1.8740234,3.8731079,2.0988159v-4.6801147    c-1.6867065-0.4343872-2.9215698-1.005249-3.7054443-1.7130127c-0.7834473-0.7077637-1.1751709-1.7572021-1.1751709-3.1481934    c0-1.3910522,0.451355-2.5292969,1.3546143-3.4137573c0.902771-0.8845215,2.0779419-1.3670044,3.526001-1.4475098v-1.2064209    h1.4329834v1.2304688c1.6416016,0.1286011,3.1939087,0.7318726,4.6564941,1.8092651l-1.4553223,2.2195435    c-0.9847412-0.7559204-2.052002-1.222168-3.2011719-1.3994141v4.5358276h0.0669556    c1.7163086,0.4343872,2.9775391,1.0214233,3.7837524,1.7611084c0.8057861,0.7401733,1.2089252,1.8136597,1.2089252,3.2208862    S31.5384998,31.9555664,30.61339,32.8400879z"/></g></g></svg>