<?xml version="1.0" standalone="no"?><!-- Generator: Gravit.io --><svg xmlns="http://www.w3.org/2000/svg" xmlns:xlink="http://www.w3.org/1999/xlink" style="isolation:isolate" viewBox="484.301 283.453 205.523 26.297" width="205.523" height="26.297"><path d=" M 605.291 302.684 L 605.291 302.684 L 605.291 302.684 Q 605.291 301.119 604.491 300.319 L 604.491 300.319 L 604.491 300.319 Q 603.691 299.52 601.582 298.658 L 601.582 298.658 L 601.582 298.658 Q 597.732 297.199 596.045 295.239 L 596.045 295.239 L 596.045 295.239 Q 594.357 293.279 594.357 290.607 L 594.357 290.607 L 594.357 290.607 Q 594.357 287.373 596.651 285.413 L 596.651 285.413 L 596.651 285.413 Q 598.945 283.453 602.479 283.453 L 602.479 283.453 L 602.479 283.453 Q 604.834 283.453 606.68 284.446 L 606.68 284.446 L 606.68 284.446 Q 608.525 285.439 609.519 287.25 L 609.519 287.25 L 609.519 287.25 Q 610.512 289.061 610.512 291.363 L 610.512 291.363 L 605.361 291.363 L 605.361 291.363 Q 605.361 289.57 604.597 288.63 L 604.597 288.63 L 604.597 288.63 Q 603.832 287.689 602.391 287.689 L 602.391 287.689 L 602.391 287.689 Q 601.037 287.689 600.281 288.489 L 600.281 288.489 L 600.281 288.489 Q 599.525 289.289 599.525 290.643 L 599.525 290.643 L 599.525 290.643 Q 599.525 291.697 600.369 292.55 L 600.369 292.55 L 600.369 292.55 Q 601.213 293.402 603.357 294.316 L 603.357 294.316 L 603.357 294.316 Q 607.102 295.67 608.798 297.639 L 608.798 297.639 L 608.798 297.639 Q 610.494 299.607 610.494 302.648 L 610.494 302.648 L 610.494 302.648 Q 610.494 305.988 608.367 307.869 L 608.367 307.869 L 608.367 307.869 Q 606.24 309.75 602.584 309.75 L 602.584 309.75 L 602.584 309.75 Q 600.105 309.75 598.066 308.73 L 598.066 308.73 L 598.066 308.73 Q 596.027 307.711 594.876 305.813 L 594.876 305.813 L 594.876 305.813 Q 593.725 303.914 593.725 301.33 L 593.725 301.33 L 598.91 301.33 L 598.91 301.33 Q 598.91 303.545 599.771 304.547 L 599.771 304.547 L 599.771 304.547 Q 600.633 305.549 602.584 305.549 L 602.584 305.549 L 602.584 305.549 Q 605.291 305.549 605.291 302.684 Z  M 630.498 283.805 L 630.498 288.111 L 624.17 288.111 L 624.17 309.398 L 618.984 309.398 L 618.984 288.111 L 612.762 288.111 L 612.762 283.805 L 630.498 283.805 L 630.498 283.805 Z  M 651.486 294.527 L 651.486 298.904 L 651.486 298.904 Q 651.486 304.055 649.052 306.902 L 649.052 306.902 L 649.052 306.902 Q 646.617 309.75 642.293 309.75 L 642.293 309.75 L 642.293 309.75 Q 637.986 309.75 635.525 306.929 L 635.525 306.929 L 635.525 306.929 Q 633.064 304.107 633.029 299.027 L 633.029 299.027 L 633.029 294.65 L 633.029 294.65 Q 633.029 289.377 635.473 286.415 L 635.473 286.415 L 635.473 286.415 Q 637.916 283.453 642.258 283.453 L 642.258 283.453 L 642.258 283.453 Q 646.529 283.453 648.99 286.362 L 648.99 286.362 L 648.99 286.362 Q 651.451 289.271 651.486 294.527 L 651.486 294.527 L 651.486 294.527 Z  M 646.301 299.063 L 646.301 294.615 L 646.301 294.615 Q 646.301 291.152 645.316 289.465 L 645.316 289.465 L 645.316 289.465 Q 644.332 287.777 642.258 287.777 L 642.258 287.777 L 642.258 287.777 Q 640.201 287.777 639.217 289.403 L 639.217 289.403 L 639.217 289.403 Q 638.232 291.029 638.197 294.352 L 638.197 294.352 L 638.197 298.904 L 638.197 298.904 Q 638.197 302.262 639.199 303.853 L 639.199 303.853 L 639.199 303.853 Q 640.201 305.443 642.293 305.443 L 642.293 305.443 L 642.293 305.443 Q 644.314 305.443 645.299 303.888 L 645.299 303.888 L 645.299 303.888 Q 646.283 302.332 646.301 299.063 L 646.301 299.063 L 646.301 299.063 Z  M 666.797 309.398 L 662.947 300.047 L 660.381 300.047 L 660.381 309.398 L 655.213 309.398 L 655.213 283.805 L 663.457 283.805 L 663.457 283.805 Q 667.342 283.805 669.46 285.817 L 669.46 285.817 L 669.46 285.817 Q 671.578 287.83 671.578 291.539 L 671.578 291.539 L 671.578 291.539 Q 671.578 296.637 667.869 298.676 L 667.869 298.676 L 672.352 309.152 L 672.352 309.398 L 666.797 309.398 L 666.797 309.398 Z  M 660.381 288.111 L 660.381 295.74 L 663.316 295.74 L 663.316 295.74 Q 664.863 295.74 665.637 294.712 L 665.637 294.712 L 665.637 294.712 Q 666.41 293.684 666.41 291.961 L 666.41 291.961 L 666.41 291.961 Q 666.41 288.111 663.404 288.111 L 663.404 288.111 L 660.381 288.111 L 660.381 288.111 Z  M 688.348 294.158 L 688.348 298.324 L 680.297 298.324 L 680.297 305.109 L 689.824 305.109 L 689.824 309.398 L 675.129 309.398 L 675.129 283.805 L 689.789 283.805 L 689.789 288.111 L 680.297 288.111 L 680.297 294.158 L 688.348 294.158 L 688.348 294.158 Z  M 495.867 302.684 L 495.867 302.684 L 495.867 302.684 Q 495.867 301.119 495.067 300.319 L 495.067 300.319 L 495.067 300.319 Q 494.268 299.52 492.158 298.658 L 492.158 298.658 L 492.158 298.658 Q 488.309 297.199 486.621 295.239 L 486.621 295.239 L 486.621 295.239 Q 484.934 293.279 484.934 290.607 L 484.934 290.607 L 484.934 290.607 Q 484.934 287.373 487.228 285.413 L 487.228 285.413 L 487.228 285.413 Q 489.521 283.453 493.055 283.453 L 493.055 283.453 L 493.055 283.453 Q 495.41 283.453 497.256 284.446 L 497.256 284.446 L 497.256 284.446 Q 499.102 285.439 500.095 287.25 L 500.095 287.25 L 500.095 287.25 Q 501.088 289.061 501.088 291.363 L 501.088 291.363 L 495.938 291.363 L 495.938 291.363 Q 495.938 289.57 495.173 288.63 L 495.173 288.63 L 495.173 288.63 Q 494.408 287.689 492.967 287.689 L 492.967 287.689 L 492.967 287.689 Q 491.613 287.689 490.857 288.489 L 490.857 288.489 L 490.857 288.489 Q 490.102 289.289 490.102 290.643 L 490.102 290.643 L 490.102 290.643 Q 490.102 291.697 490.945 292.55 L 490.945 292.55 L 490.945 292.55 Q 491.789 293.402 493.934 294.316 L 493.934 294.316 L 493.934 294.316 Q 497.678 295.67 499.374 297.639 L 499.374 297.639 L 499.374 297.639 Q 501.07 299.607 501.07 302.648 L 501.07 302.648 L 501.07 302.648 Q 501.07 305.988 498.943 307.869 L 498.943 307.869 L 498.943 307.869 Q 496.816 309.75 493.16 309.75 L 493.16 309.75 L 493.16 309.75 Q 490.682 309.75 488.643 308.73 L 488.643 308.73 L 488.643 308.73 Q 486.604 307.711 485.452 305.813 L 485.452 305.813 L 485.452 305.813 Q 484.301 303.914 484.301 301.33 L 484.301 301.33 L 489.486 301.33 L 489.486 301.33 Q 489.486 303.545 490.348 304.547 L 490.348 304.547 L 490.348 304.547 Q 491.209 305.549 493.16 305.549 L 493.16 305.549 L 493.16 305.549 Q 495.867 305.549 495.867 302.684 Z  M 513.111 300.398 L 509.666 300.398 L 509.666 309.398 L 504.498 309.398 L 504.498 283.805 L 513.217 283.805 L 513.217 283.805 Q 517.014 283.805 519.272 286.16 L 519.272 286.16 L 519.272 286.16 Q 521.531 288.516 521.531 292.277 L 521.531 292.277 L 521.531 292.277 Q 521.531 296.039 519.299 298.219 L 519.299 298.219 L 519.299 298.219 Q 517.066 300.398 513.111 300.398 L 513.111 300.398 L 513.111 300.398 Z  M 509.666 288.111 L 509.666 296.092 L 513.217 296.092 L 513.217 296.092 Q 514.693 296.092 515.502 295.125 L 515.502 295.125 L 515.502 295.125 Q 516.311 294.158 516.311 292.313 L 516.311 292.313 L 516.311 292.313 Q 516.311 290.396 515.484 289.263 L 515.484 289.263 L 515.484 289.263 Q 514.658 288.129 513.27 288.111 L 513.27 288.111 L 509.666 288.111 L 509.666 288.111 Z  M 542.994 294.527 L 542.994 298.904 L 542.994 298.904 Q 542.994 304.055 540.56 306.902 L 540.56 306.902 L 540.56 306.902 Q 538.125 309.75 533.801 309.75 L 533.801 309.75 L 533.801 309.75 Q 529.494 309.75 527.033 306.929 L 527.033 306.929 L 527.033 306.929 Q 524.572 304.107 524.537 299.027 L 524.537 299.027 L 524.537 294.65 L 524.537 294.65 Q 524.537 289.377 526.98 286.415 L 526.98 286.415 L 526.98 286.415 Q 529.424 283.453 533.766 283.453 L 533.766 283.453 L 533.766 283.453 Q 538.037 283.453 540.498 286.362 L 540.498 286.362 L 540.498 286.362 Q 542.959 289.271 542.994 294.527 L 542.994 294.527 L 542.994 294.527 Z  M 537.809 299.063 L 537.809 294.615 L 537.809 294.615 Q 537.809 291.152 536.824 289.465 L 536.824 289.465 L 536.824 289.465 Q 535.84 287.777 533.766 287.777 L 533.766 287.777 L 533.766 287.777 Q 531.709 287.777 530.725 289.403 L 530.725 289.403 L 530.725 289.403 Q 529.74 291.029 529.705 294.352 L 529.705 294.352 L 529.705 298.904 L 529.705 298.904 Q 529.705 302.262 530.707 303.853 L 530.707 303.853 L 530.707 303.853 Q 531.709 305.443 533.801 305.443 L 533.801 305.443 L 533.801 305.443 Q 535.822 305.443 536.807 303.888 L 536.807 303.888 L 536.807 303.888 Q 537.791 302.332 537.809 299.063 L 537.809 299.063 L 537.809 299.063 Z  M 558.305 309.398 L 554.455 300.047 L 551.889 300.047 L 551.889 309.398 L 546.721 309.398 L 546.721 283.805 L 554.965 283.805 L 554.965 283.805 Q 558.85 283.805 560.968 285.817 L 560.968 285.817 L 560.968 285.817 Q 563.086 287.83 563.086 291.539 L 563.086 291.539 L 563.086 291.539 Q 563.086 296.637 559.377 298.676 L 559.377 298.676 L 563.859 309.152 L 563.859 309.398 L 558.305 309.398 L 558.305 309.398 Z  M 551.889 288.111 L 551.889 295.74 L 554.824 295.74 L 554.824 295.74 Q 556.371 295.74 557.145 294.712 L 557.145 294.712 L 557.145 294.712 Q 557.918 293.684 557.918 291.961 L 557.918 291.961 L 557.918 291.961 Q 557.918 288.111 554.912 288.111 L 554.912 288.111 L 551.889 288.111 L 551.889 288.111 Z  M 583.213 283.805 L 583.213 288.111 L 576.885 288.111 L 576.885 309.398 L 571.699 309.398 L 571.699 288.111 L 565.477 288.111 L 565.477 283.805 L 583.213 283.805 L 583.213 283.805 Z " fill-rule="evenodd" fill="rgb(255,255,255)"/></svg>