<svg xmlns="http://www.w3.org/2000/svg" xmlns:xlink="http://www.w3.org/1999/xlink"><defs><clipPath id="a"><path d="M0 0h177v28H0z"/></clipPath><clipPath id="a"><circle r="100" stroke-width="0"/></clipPath><radialGradient id="b" cx=".4" cy=".3" r=".8"><stop offset="0" stop-color="#fff"/><stop offset=".4" stop-color="#fff"/><stop offset=".8" stop-color="#EEE"/></radialGradient><radialGradient id="d" cx=".5" cy=".5" r=".5"><stop offset="0" stop-color="#fff" stop-opacity="0"/><stop offset=".8" stop-color="#fff" stop-opacity="0"/><stop offset=".99" stop-opacity=".3"/><stop offset="1"/></radialGradient><g id="c" stroke-linejoin="round" clip-path="url(#a)"><path d="M6-32q20 4 40 13 11-16 18-28-14-21-27-29-20 1-36 8 3 17 5 36M-26-2q-19-6-36-9-12 16-14 33 7 18 26 32 18-7 33-15-6-24-9-41m-69 24q-7-10-7-30v88h17q-10-35-10-58m150 2Q41 41 24 52q4 13 7 27 24-1 37-12 10-17 12-32-15-7-25-11M0 120l-3-25q-22-2-39-13-8 2-18-1M-90-48q10-4 22-1 16-22 33-28 0-23-5-23h-60m200 45L87-37Q98-10 97 5l3 1"/><path d="M6-32Q-18-12-26-2m72-17q8 24 9 43m9-71q13 3 23 10M37-76q2-14-1-24M1-68q-14-9-36-9m-27 66q-5-14-6-38m-8 71q-9 2-19 0m45 32q1 16 8 28m25-43q17 9 41 13m7 27Q20 92-3 95m71-28l12 13m0-45Q90 25 97 5" fill="none"/></g></defs><symbol id="Adidas_Logo" viewBox="0 0 302 204.27155"><g clip-path="url(#d)" transform="matrix(21.955 0 0 -21.955 -2043.1 10481)"><path d="M105.72 468.11c-.639 0-1.018.327-1.047.798h.611c0-.157.087-.366.465-.379.262 0 .407.157.407.275-.029.183-.262.196-.494.236a2.389 2.389 0 0 0-.611.156.626.626 0 0 0-.32.563c0 .419.35.746.96.746.582 0 .96-.301.988-.759h-.581c0 .117-.029.314-.378.314-.233 0-.378-.039-.407-.209 0-.236.494-.223.872-.314.349-.092.582-.314.582-.629 0-.576-.465-.798-1.047-.798"/></g><path d="M33.537 118.8l44.042-25.578 23.623 40.53H41.836"/><path d="M126.15 202.12v-51.155" stroke="#000" stroke-width="12.888"/><g clip-path="url(#c)" transform="matrix(21.955 0 0 -21.955 -2043.1 10481)"><path d="M93.655 469.31c0-.366.32-.667.668-.667.379 0 .669.301.669.667 0 .353-.29.667-.669.667a.692.692 0 0 1-.668-.667m.639-1.204c-.639 0-1.191.537-1.191 1.204s.552 1.191 1.191 1.191c.262 0 .495-.066.698-.209v.183h.582v-2.316h-.582v.144c-.174-.131-.436-.197-.698-.197"/></g><path d="M197.59 133.74L136.314 26.863 180.355 1l76.601 132.74"/><g clip-path="url(#b)" transform="matrix(21.955 0 0 -21.955 -2043.1 10481)"><path d="M96.33 469.31c0-.366.291-.667.669-.667.348 0 .669.301.669.667a.693.693 0 0 1-.669.667.672.672 0 0 1-.669-.667m.64-1.204c-.669 0-1.192.537-1.192 1.204s.523 1.191 1.192 1.191c.261 0 .494-.066.698-.209v.981h.581v-3.114h-.581v.144a1.265 1.265 0 0 0-.698-.197"/></g><path d="M85.247 73.119l44.678-25.27 49.158 85.888h-46.61v12.646h-12.757v-12.646"/><g clip-path="url(#a)" transform="matrix(21.955 0 0 -21.955 -2043.1 10481)"><path d="M106.39 470.7c-.146 0-.291.131-.291.288s.145.288.291.288c.174 0 .291-.131.291-.288s-.117-.288-.291-.288m0 .536c-.146 0-.233-.117-.233-.248s.087-.249.233-.249c.145 0 .232.118.232.249s-.087.248-.232.248"/><path d="M106.45 470.83l-.058.131h-.058v-.131h-.044v.314h.131c.029 0 .087-.04.087-.092s-.029-.078-.058-.091l.058-.131m-.116.274h-.058V471h.058c.058 0 .058.013.058.052 0 .027 0 .052-.058.052m-3.842-1.794c0-.366.291-.667.669-.667.349 0 .668.301.668.667a.691.691 0 0 1-.668.667.672.672 0 0 1-.669-.667m.639-1.204c-.668 0-1.191.537-1.191 1.204s.523 1.191 1.191 1.191c.262 0 .495-.066.698-.209v.183h.553v-2.316h-.553v.144a1.26 1.26 0 0 0-.698-.197m-3.312 1.204c0-.366.32-.667.669-.667.378 0 .669.301.669.667a.672.672 0 0 1-.669.667.692.692 0 0 1-.669-.667m1.338 1.963h.581v-3.114h-.581v.144a1.107 1.107 0 0 0-.669-.197c-.669 0-1.221.537-1.221 1.204s.552 1.191 1.221 1.191c.261 0 .494-.066.669-.209v.981z"/></g></symbol><symbol id="converse-logo" viewBox="0 0 192.756 192.756"><g fill-rule="evenodd" clip-rule="evenodd"><path fill="#fff" d="M0 0h192.756v192.756H0V0z"/><path d="M173.412 57.651h16.51v3.241h-11.264v4.166h9.334l-2.39 3.24h-6.944v5.092h11.264v3.24h-16.51V57.651zm-70.978 0h16.509v3.241H107.68v4.166h9.336l-2.393 3.24h-6.943v5.092h11.263v3.24h-16.509V57.651zm-49.529 0h5.323l9.489 12.345V57.651h5.246V76.63h-5.4L58.15 64.364V76.63h-5.245V57.651zM36.086 73.467c1.697 0 4.706-.154 5.787-1.08V61.895c-1.081-.926-4.089-1.08-5.787-1.08-1.697 0-4.706.154-5.786 1.08v10.493c1.08.925 4.089 1.079 5.786 1.079v3.549c-2.623 0-11.032.462-11.032-3.857V61.123c0-4.32 8.409-3.857 11.032-3.857s11.033-.463 11.033 3.857v12.036c0 4.32-8.41 3.857-11.033 3.857v-3.549zM2.834 61.664c0-3.935 6.018-4.475 10.184-4.475s5.786.386 9.258 1.698l-3.009 3.085c-1.697-.849-7.329-2.006-11.187-.154v10.724c3.858 1.852 9.49.694 11.187-.154l3.009 3.086c-3.472 1.312-5.092 1.697-9.258 1.697S2.834 76.63 2.834 72.696V61.664zm136.555 7.714l5.092 7.252h-5.477l-5.094-7.406h-3.934v-3.24h4.475c1.621 0 3.395 0 4.783-.926v-3.241c-1.389-.926-3.162-.926-4.783-.926h-4.475V76.63h-5.246V57.651h13.5c2.162 0 6.25.155 6.25 4.243v3.086c0 3.437-2.889 4.094-5.094 4.216l.003.182zm15.199-8.177c5.477-1.312 9.875.54 10.801 1.003l2.932-2.932c-1.852-1.003-5.941-2.238-10.262-2.238s-8.949.309-8.949 4.707v1.852c0 3.085.771 3.857 3.01 4.397 2.236.54 7.637 1.465 10.877 1.697v3.472c-5.479 1.312-9.875-.54-11.418-1.234l-2.932 2.932c2.469 1.234 6.557 2.469 10.879 2.469 4.32 0 8.949-.309 8.949-4.706v-2.854c0-2.16-1.697-2.854-2.855-3.241-1.156-.385-7.482-1.542-11.031-1.697v-3.627h-.001zm-78.307-3.55h5.632l6.171 13.116 4.475-9.489h-4.397l1.697-3.627h9.258l-8.95 18.979H85.23l-8.949-18.979zm-4.861 45.904h17.745l5.961-18.198 5.919 18.198h17.898l-14.195 11.263 6.607 20.366-16.636-12.342-15.822 12.342 6.564-20.057-14.041-11.572zm42.314 30.299h.406c.176 0 .373.066.373.293 0 .256-.244.279-.467.279h-.312v.109h.383l.443.678h.139l-.439-.674c.211-.033.379-.15.379-.391 0-.266-.145-.404-.479-.404h-.551v1.469h.125v-1.359z"/><path d="M114.061 133.234c.689 0 1.244.557 1.244 1.244a1.243 1.243 0 1 1-2.488 0c0-.687.556-1.244 1.244-1.244l.004.109c-.643 0-1.121.492-1.121 1.135 0 .629.486 1.135 1.121 1.135s1.113-.51 1.113-1.139c0-.635-.475-1.131-1.113-1.131l-.004-.109z"/></g></symbol><symbol id="icon-approved" viewBox="0 0 16 16"><g fill="#353535"><path d="M8 16c-4.4 0-8-3.6-8-8s3.6-8 8-8 8 3.6 8 8-3.6 8-8 8zM8 1C4.1 1 1 4.1 1 8s3.1 7 7 7 7-3.1 7-7-3.1-7-7-7z"/><path d="M6 11.6c-.1 0-.3-.1-.4-.1L2.5 8.3c-.2-.2-.2-.5 0-.7s.5-.2.7 0L6 10.4l6-5.9c.2-.2.5-.2.7 0s.2.5 0 .7l-6.3 6.3c-.1.1-.2.1-.4.1z"/></g></symbol><symbol id="icon-arrow-left" viewBox="0 0 512 512"><path d="M352 115.4L331.3 96 160 256l171.3 160 20.7-19.3L201.5 256z"/></symbol><symbol id="icon-arrow-right" viewBox="0 0 512 512"><path d="M160 115.4L180.7 96 352 256 180.7 416 160 396.7 310.5 256z"/></symbol><symbol id="icon-arrow-top" viewBox="0 0 32 32"><path d="M16.714 11.297a1.02 1.02 0 0 0-1.429 0l-8.999 8.976a1.008 1.008 0 1 0 1.428 1.426L16 13.436l8.285 8.264a1.012 1.012 0 0 0 1.429 0 1.008 1.008 0 0 0 0-1.426l-9-8.977z" fill="#121313"/></symbol><symbol id="icon-card" viewBox="0 0 100 100"><path fill="#353535" d="M95 18.8H5c-2.5 0-5 2.5-5 5v58.8c0 2.5 2.5 5 5 5h90c2.5 0 5-2.5 5-5V23.8c0-2.6-2.5-5-5-5zM93.8 25v12.5H6.2V25h87.6zM6.2 81.2V43.8h87.5v37.5H6.2z"/></symbol><symbol id="icon-cart" viewBox="0 0 100 100"><g fill="#353535"><path d="M98.8 26.9c-.7-1.3-1.9-1.9-3.8-1.9H18.3L14.4 8.8c-.6-1.2-1.9-2.5-3.1-2.5H3.1C1.2 6.2 0 7.5 0 9.4s1.2 3.1 3.1 3.1h5.6l4.2 17.9c0 .2.1.4.1.6l5.7 24.6c.1.2.2.4.3.5l3.4 14.5c.6 2.5 2.5 4.4 5 4.4H85c2.5 0 4.4-1.9 5-3.8l10-40c0-1.2-.6-3.1-1.2-4.3zm-15 41.9H28.1l-3-13.8c0-.4 0-.8-.1-1.2l-1.5-6.4L20 31.2h73.1l-9.3 37.6z"/><circle cx="31.2" cy="87.5" r="6.2"/><circle cx="75" cy="87.5" r="6.2"/></g></symbol><symbol id="icon-compare" viewBox="0 0 32 24"><path d="M26 12l-6 6h4c0 1.102-.898 2-2 2H10c-1.102 0-2-.898-2-2v-2H4v2c0 3.309 2.691 6 6 6h12c3.309 0 6-2.691 6-6h4l-6-6zM22 0H10C6.691 0 4 2.691 4 6v.062H0L6 12l6-5.938H8V6c0-1.102.898-2 2-2h12c1.102 0 2 .898 2 2v2h4V6c0-3.309-2.691-6-6-6z" fill="#4e4e50"/></symbol><symbol id="icon-delivery" viewBox="0 0 100 100"><g fill="#353535"><path d="M98.8 66.2l-4.4-7.5c-1.2-2.5-3.8-4.4-6.9-4.4H80c-.6 0-1.3.1-1.9.2v-5.9c0-2.5-2.5-5-5-5H15.6c-1.9 0-3.1 1.2-3.1 3.1s1.2 3.1 3.1 3.1h56.2v34.8c-.8.8-1.4 1.7-1.9 2.7h-28c-1.2-2.9-4.1-5-7.5-5s-6.3 2.1-7.5 5H15.6c-1.9 0-3.1 1.2-3.1 3.1s1.2 3.1 3.1 3.1h11.2c1.2 2.9 4.1 5 7.5 5s6.3-2.1 7.5-5H70c1.2 2.9 4.1 5 7.5 5s6.3-2.1 7.5-5h6.9c4.4 0 8.1-3.8 8.1-8.8V70.6c0-1.2-.6-3.1-1.2-4.4zm-5 18.8c0 1.2-.6 2.5-1.9 2.5H85c-1.1-2.8-3.8-4.7-6.9-5V63.1c0-1.2.6-2.5 1.9-2.5h6.9c.6 0 1.2.6 1.9 1.2l4.4 7.5c.6.6.6.6.6 1.2V85z"/><path d="M6.2 62.5h31.9c1.9 0 3.1-1.2 3.1-3.1s-1.2-3.1-3.1-3.1H6.2c-1.9 0-3.1 1.2-3.1 3.1s1.3 3.1 3.1 3.1zm31.9 9.4c0-1.9-1.2-3.1-3.1-3.1H3.1C1.2 68.8 0 70 0 71.9S1.2 75 3.1 75H35c1.9 0 3.1-1.2 3.1-3.1z"/></g></symbol><symbol id="icon-facebook" viewBox="0 0 800 800"><path fill="#3b5998" d="M445 643h-90V419h-75v-87h75v-64q0-55 32-86 30-29 80-29 28 0 67 3v78h-47q-42 0-42 38v60h86l-11 87h-75v224z"/></symbol><symbol id="icon-googleplus" viewBox="0 0 800 800"><path fill="#dd4b39" d="M487 370c21 129-62 237-195 237-114 0-207-93-207-207s93-207 207-207c89 0 138 54 138 54l-56 54s-29-32-82-32c-71 0-128 59-128 131 0 73 57 131 128 131 81 0 113-58 117-90H292v-71h195zm189-59v59h59v60h-59v59h-59v-59h-59v-60h59v-59h59z"/></symbol><symbol id="icon-heart" viewBox="0 0 16 16"><path fill="#353535" d="M8 16c-.1 0-.2 0-.3-.1C7.4 15.7 0 10.1 0 5.8 0 2.8 2.1 1 4.2 1c1.3 0 2.9.7 3.8 2.7.9-2 2.5-2.7 3.8-2.7C13.9 1 16 2.8 16 5.8c0 4.3-7.4 9.9-7.7 10.1-.1.1-.2.1-.3.1zM4.2 2C2.6 2 1 3.4 1 5.8c0 3.4 5.6 8 7 9.1 1.4-1.1 7-5.7 7-9.1C15 3.4 13.4 2 11.8 2S9 3.3 8.5 5.4c-.1.5-.9.5-1 0C7 3.3 5.8 2 4.2 2z"/></symbol><symbol id="icon-home" viewBox="0 0 50 50"><path fill="none" d="M0 0h50v50H0z"/><path fill="none" stroke="#000" stroke-linecap="round" stroke-miterlimit="10" stroke-width="2" d="M44 21v28H6V21"/><path fill="none" stroke="#000" stroke-linecap="round" stroke-miterlimit="10" stroke-width="2" d="M19 49V28h12v21"/><path d="M35 5v3.016l2 2.078V7h2v5.203l2 2.063V5z"/><path fill="none" stroke="#000" stroke-linecap="round" stroke-linejoin="round" stroke-miterlimit="10" stroke-width="2" d="M1.11 25.942L25 1.053l23.89 24.89"/></symbol><symbol id="icon-instagram" viewBox="0 0 800 800"><path fill="#383940" d="M150 400c0-119 0-166 42-208s88-42 208-42 166 0 208 42 42 89 42 208 0 166-42 208-88 42-208 42-166 0-208-42-42-89-42-208zm455 0c0-114 0-148-29-176-29-29-62-29-176-29s-148 0-176 29c-29 29-29 62-29 176s0 148 29 176c29 29 62 29 176 29s148 0 176-29c29-29 29-62 29-176zM400 272a128 128 0 1 1 0 256 128 128 0 0 1 0-256zm0 211c46 0 83-37 83-83s-37-83-83-83-83 37-83 83 37 83 83 83zm163-216c0 16-13 30-30 30-16 0-30-14-30-30 0-17 14-30 30-30 17 0 30 13 30 30z"/></symbol><symbol id="icon-quote" viewBox="0 0 32 24"><path d="M32 24V12h-8c0-4.41 3.586-8 8-8V0c-6.617 0-12 5.383-12 12v12h12zm-20 0V12H4c0-4.41 3.586-8 8-8V0C5.383 0 0 5.383 0 12v12h12z" fill="#4e4e50"/></symbol><symbol id="icon-search" viewBox="0 0 100 100"><path fill="#353535" d="M98.8 95L71.2 67.4c6.3-7.1 10.1-16.5 10.1-26.8C81.2 18.1 63.1 0 40.6 0S0 18.1 0 40.6s18.1 40.6 40.6 40.6c10 0 19.1-3.6 26.1-9.5l27.6 27.6c.6.6 1.9.6 2.5.6s1.9 0 1.9-.6c1.3-1.2 1.3-3.1.1-4.3zM6.2 40.6c0-18.8 15.6-34.4 34.4-34.4S75 21.9 75 40.6 59.4 75 40.6 75 6.2 59.4 6.2 40.6z"/></symbol><symbol id="icon-twitter" viewBox="0 0 800 800"><path fill="#55acee" d="M679 239s-21 34-55 57c7 156-107 329-314 329-103 0-169-50-169-50s81 17 163-45c-83-5-103-77-103-77s23 6 50-2c-93-23-89-110-89-110s23 14 50 14c-84-65-34-148-34-148s76 107 228 116c-22-121 117-177 188-101 37-6 71-27 71-27s-12 41-49 61c30-2 63-17 63-17z"/></symbol><symbol id="icon-user" viewBox="0 0 32 32"><path d="M22 11c0 5-3 9-6 9s-6-4-6-9 2-8 6-8 6 3 6 8zM4 30h24c0-9-6-10-12-10S4 21 4 30z"/></symbol><symbol id="icon-view" viewBox="0 0 512 512"><path d="M504.984 478.912L361.365 335.271c28.868-34.715 46.246-79.299 46.246-127.965C407.611 96.672 317.939 7 207.306 7 96.692 7 7 96.672 7 207.306c0 110.608 89.692 200.301 200.306 200.301 48.676 0 93.256-17.379 127.972-46.248L478.896 505l26.088-26.088zM28.085 207.306c0-98.825 80.386-179.221 179.221-179.221 98.815 0 179.221 80.396 179.221 179.221 0 98.831-80.405 179.215-179.221 179.215-98.835 0-179.221-80.384-179.221-179.215z" fill="#425661"/><path fill="#425661" d="M105.181 197.438H305.91v21.084H105.181z"/><path fill="#425661" d="M195.003 107.615h21.084v200.729h-21.084z"/></symbol><symbol id="icon-vk" viewBox="0 0 800 800"><path fill="#4D76A4" d="M393 566c-135 0-208-143-276-285-10-21 6-23 16-23l81-1c12 0 17 9 20 15 13 31 66 142 92 129 18-9 15-107 4-122-7-9-20-12-26-13-5-1 3-11 13-16 18-9 87-9 111-3 28 7 19 32 19 95 0 20-4 50 11 58 24 12 81-101 91-131 3-8 9-11 19-11h85c20 0 27 1 30 8 5 12-9 40-44 87-57 77-65 70-17 114 46 42 55 63 57 66 14 28-11 34-21 34h-76c-9 0-21 0-38-11-29-19-55-70-76-64-17 5-20 34-21 53-1 16-10 21-20 21h-34z"/></symbol><symbol id="levi-s-logo" viewBox="0 0 192.756 192.756"><g fill-rule="evenodd" clip-rule="evenodd"><path fill="#fff" d="M0 0h192.756v192.756H0V0z"/><path d="M2.834 55.107l17.916 78.505c17.987-10.378 55.043-14.017 75.65.05 20.613-14.037 57.629-10.422 75.605-.05l17.916-78.505H2.834z"/><path fill="#fff" d="M26.074 74.219v29.505h20.654v-6.927H35.952V74.219h-9.878zm52.132.048h11.005l7.423 19.819 7.167-19.819h10.877l-12.412 29.409H90.747L78.206 74.267zm39.218-.028v29.465h9.867V74.239h-9.867zm-54.018-.509c-9.034 0-15.441 1.729-15.441 15.434 0 11.271 2.755 15.947 15.825 15.947 13.967 0 14.224-6.597 14.608-9.735h-9.867c0 2.498-2.499 3.586-5.062 3.586-.769 0-5.446.641-5.446-6.917h20.374c.128-1.089.003-5.255-.064-5.892-.703-6.659-1.344-12.487-14.927-12.423zm90.061.034c8.059 0 13.176 3.003 13.814 9.52h-10.232c0-1.405-1.023-4.025-3.967-4.025-2.941 0-4.541.958-4.541 3.13 0 2.3 1.344 2.875 2.367 3.131.512.128 6.652 1.022 8.697 1.278 1.523.19 7.803.511 7.676 6.9-.129 6.39-4.094 10.351-14.07 10.351-9.979 0-14.711-3.45-14.711-9.072h10.234c.062 1.98 1.15 3.45 4.348 3.45 3.199 0 4.861-1.402 4.861-3.578 0-1.662-1.471-2.556-3.07-2.684-1.051-.084-7.738-.128-10.936-1.534-2.852-1.253-6.119-3.184-5.564-8.051.639-5.621 4.732-8.816 15.094-8.816zm-15.422.968c.023 2.242-.168 3.715-3.18 5.381.193-.435.785-1.346.689-1.958a4.406 4.406 0 0 1-1.588.292c-2.252 0-4.076-1.663-4.076-3.714s1.824-3.714 4.076-3.714c2.255-.001 4.079 1.662 4.079 3.713z"/><path d="M58.213 85.826h10.579c.064-4.039-1.475-6.218-5.386-6.218-3.526 0-5.193 2.244-5.193 6.218zm107.303 48.52a1.867 1.867 0 0 0-1.369-.563c-.531 0-.986.188-1.361.563a1.86 1.86 0 0 0-.566 1.363c0 .537.188.994.561 1.371.377.379.832.569 1.367.569s.992-.19 1.369-.569.564-.836.564-1.371a1.857 1.857 0 0 0-.565-1.363zm-.194 2.548c-.322.326-.715.489-1.176.489s-.854-.163-1.178-.489a1.63 1.63 0 0 1-.48-1.185c0-.46.16-.852.484-1.177.324-.326.715-.489 1.174-.489s.852.163 1.176.489c.324.325.484.717.484 1.177.001.463-.16.858-.484 1.185z"/><path d="M165.008 136.738c-.01-.018-.016-.055-.02-.11s-.006-.108-.006-.158v-.155a.574.574 0 0 0-.115-.329.514.514 0 0 0-.365-.208.793.793 0 0 0 .307-.103c.139-.089.209-.229.209-.418 0-.267-.109-.446-.328-.538-.123-.05-.316-.076-.58-.076h-.742v2.122h.373v-.837h.295c.199 0 .338.023.416.068.135.079.201.241.201.487v.168l.008.068.004.023a.288.288 0 0 0 .006.021h.35l-.013-.025zm-.574-1.119a1 1 0 0 1-.355.048h-.338v-.769h.318c.207 0 .357.026.453.079.094.053.141.156.141.311-.001.163-.075.274-.219.331z"/></g></symbol><symbol id="logo-black" viewBox="484.432 283.453 205.523 26.297"><path d="M605.422 302.684q0-1.565-.8-2.365-.8-.799-2.909-1.661-3.85-1.459-5.537-3.419-1.688-1.96-1.688-4.632 0-3.234 2.294-5.194t5.827-1.96q2.356 0 4.202.993 1.845.993 2.838 2.804.994 1.811.994 4.113h-5.151q0-1.793-.764-2.733-.765-.941-2.207-.941-1.353 0-2.109.8t-.756 2.154q0 1.054.844 1.907.844.852 2.988 1.766 3.744 1.354 5.441 3.323 1.696 1.968 1.696 5.009 0 3.34-2.127 5.221-2.127 1.881-5.783 1.881-2.479 0-4.518-1.02-2.039-1.019-3.19-2.917-1.152-1.899-1.152-4.483h5.186q0 2.215.861 3.217.862 1.002 2.813 1.002 2.707 0 2.707-2.865zm25.207-18.879v4.306h-6.328v21.287h-5.186v-21.287h-6.222v-4.306h17.736zm20.988 10.722v4.377q0 5.151-2.434 7.998-2.435 2.848-6.759 2.848-4.307 0-6.768-2.821-2.461-2.822-2.496-7.902v-4.377q0-5.273 2.444-8.235 2.443-2.962 6.785-2.962 4.271 0 6.732 2.909 2.461 2.909 2.496 8.165zm-5.185 4.536v-4.448q0-3.463-.985-5.15-.984-1.688-3.058-1.688-2.057 0-3.041 1.626-.985 1.626-1.02 4.949v4.552q0 3.358 1.002 4.949 1.002 1.59 3.094 1.59 2.021 0 3.006-1.555.984-1.556 1.002-4.825zm20.496 10.335l-3.85-9.351h-2.566v9.351h-5.168v-25.593h8.244q3.885 0 6.003 2.012 2.118 2.013 2.118 5.722 0 5.098-3.709 7.137l4.482 10.476v.246h-5.554zm-6.416-21.287v7.629h2.935q1.547 0 2.321-1.028.773-1.028.773-2.751 0-3.85-3.006-3.85h-3.023zm27.967 6.047v4.166h-8.051v6.785h9.527v4.289H675.26v-25.593h14.66v4.306h-9.492v6.047h8.051zm-192.481 8.526q0-1.565-.8-2.365-.8-.799-2.909-1.661-3.85-1.459-5.537-3.419-1.688-1.96-1.688-4.632 0-3.234 2.294-5.194t5.828-1.96q2.355 0 4.201.993 1.845.993 2.839 2.804.993 1.811.993 4.113h-5.151q0-1.793-.764-2.733-.765-.941-2.206-.941-1.354 0-2.11.8-.756.8-.756 2.154 0 1.054.844 1.907.844.852 2.988 1.766 3.745 1.354 5.441 3.323 1.696 1.968 1.696 5.009 0 3.34-2.127 5.221-2.127 1.881-5.783 1.881-2.478 0-4.518-1.02-2.039-1.019-3.19-2.917-1.151-1.899-1.151-4.483h5.185q0 2.215.862 3.217.861 1.002 2.812 1.002 2.707 0 2.707-2.865zm17.244-2.286h-3.445v9h-5.168v-25.593h8.719q3.797 0 6.055 2.355 2.259 2.356 2.259 6.117 0 3.762-2.232 5.942-2.233 2.179-6.188 2.179zm-3.445-12.287v7.981h3.551q1.476 0 2.285-.967.808-.967.808-2.812 0-1.917-.826-3.05-.826-1.134-2.215-1.152h-3.603zm33.328 6.416v4.377q0 5.151-2.435 7.998-2.434 2.848-6.758 2.848-4.307 0-6.768-2.821-2.461-2.822-2.496-7.902v-4.377q0-5.273 2.443-8.235 2.444-2.962 6.785-2.962 4.272 0 6.733 2.909 2.461 2.909 2.496 8.165zm-5.186 4.536v-4.448q0-3.463-.984-5.15-.984-1.688-3.059-1.688-2.056 0-3.041 1.626-.984 1.626-1.019 4.949v4.552q0 3.358 1.002 4.949 1.002 1.59 3.094 1.59 2.021 0 3.006-1.555.984-1.556 1.001-4.825zm20.497 10.335l-3.85-9.351h-2.566v9.351h-5.168v-25.593h8.244q3.884 0 6.003 2.012 2.118 2.013 2.118 5.722 0 5.098-3.709 7.137l4.482 10.476v.246h-5.554zm-6.416-21.287v7.629h2.935q1.547 0 2.32-1.028.774-1.028.774-2.751 0-3.85-3.006-3.85h-3.023zm31.324-4.306v4.306h-6.328v21.287h-5.186v-21.287h-6.223v-4.306h17.737z" fill-rule="evenodd"/></symbol><symbol id="logo-white" viewBox="484.301 283.453 205.523 26.297"><path d="M605.291 302.684q0-1.565-.8-2.365-.8-.799-2.909-1.661-3.85-1.459-5.537-3.419-1.688-1.96-1.688-4.632 0-3.234 2.294-5.194t5.828-1.96q2.355 0 4.201.993 1.845.993 2.839 2.804.993 1.811.993 4.113h-5.151q0-1.793-.764-2.733-.765-.941-2.206-.941-1.354 0-2.11.8-.756.8-.756 2.154 0 1.054.844 1.907.844.852 2.988 1.766 3.745 1.354 5.441 3.323 1.696 1.968 1.696 5.009 0 3.34-2.127 5.221-2.127 1.881-5.783 1.881-2.479 0-4.518-1.02-2.039-1.019-3.19-2.917-1.151-1.899-1.151-4.483h5.185q0 2.215.861 3.217.862 1.002 2.813 1.002 2.707 0 2.707-2.865zm25.207-18.879v4.306h-6.328v21.287h-5.186v-21.287h-6.222v-4.306h17.736zm20.988 10.722v4.377q0 5.151-2.434 7.998-2.435 2.848-6.759 2.848-4.307 0-6.768-2.821-2.461-2.822-2.496-7.902v-4.377q0-5.273 2.444-8.235 2.443-2.962 6.785-2.962 4.271 0 6.732 2.909 2.461 2.909 2.496 8.165zm-5.185 4.536v-4.448q0-3.463-.985-5.15-.984-1.688-3.058-1.688-2.057 0-3.041 1.626-.985 1.626-1.02 4.949v4.552q0 3.358 1.002 4.949 1.002 1.59 3.094 1.59 2.021 0 3.006-1.555.984-1.556 1.002-4.825zm20.496 10.335l-3.85-9.351h-2.566v9.351h-5.168v-25.593h8.244q3.885 0 6.003 2.012 2.118 2.013 2.118 5.722 0 5.098-3.709 7.137l4.483 10.476v.246h-5.555zm-6.416-21.287v7.629h2.935q1.547 0 2.321-1.028.773-1.028.773-2.751 0-3.85-3.006-3.85h-3.023zm27.967 6.047v4.166h-8.051v6.785h9.527v4.289h-14.695v-25.593h14.66v4.306h-9.492v6.047h8.051zm-192.481 8.526q0-1.565-.8-2.365-.799-.799-2.909-1.661-3.849-1.459-5.537-3.419-1.687-1.96-1.687-4.632 0-3.234 2.294-5.194 2.293-1.96 5.827-1.96 2.355 0 4.201.993 1.846.993 2.839 2.804.993 1.811.993 4.113h-5.15q0-1.793-.765-2.733-.765-.941-2.206-.941-1.354 0-2.11.8-.755.8-.755 2.154 0 1.054.843 1.907.844.852 2.989 1.766 3.744 1.354 5.44 3.323 1.696 1.968 1.696 5.009 0 3.34-2.127 5.221-2.127 1.881-5.783 1.881-2.478 0-4.517-1.02-2.039-1.019-3.191-2.917-1.151-1.899-1.151-4.483h5.185q0 2.215.862 3.217.861 1.002 2.812 1.002 2.707 0 2.707-2.865zm17.244-2.286h-3.445v9h-5.168v-25.593h8.719q3.797 0 6.055 2.355 2.259 2.356 2.259 6.117 0 3.762-2.232 5.942-2.233 2.179-6.188 2.179zm-3.445-12.287v7.981h3.551q1.476 0 2.285-.967.809-.967.809-2.812 0-1.917-.827-3.05-.826-1.134-2.214-1.152h-3.604zm33.328 6.416v4.377q0 5.151-2.434 7.998-2.435 2.848-6.759 2.848-4.307 0-6.768-2.821-2.461-2.822-2.496-7.902v-4.377q0-5.273 2.443-8.235 2.444-2.962 6.786-2.962 4.271 0 6.732 2.909 2.461 2.909 2.496 8.165zm-5.185 4.536v-4.448q0-3.463-.985-5.15-.984-1.688-3.058-1.688-2.057 0-3.041 1.626-.985 1.626-1.02 4.949v4.552q0 3.358 1.002 4.949 1.002 1.59 3.094 1.59 2.021 0 3.006-1.555.984-1.556 1.002-4.825zm20.496 10.335l-3.85-9.351h-2.566v9.351h-5.168v-25.593h8.244q3.885 0 6.003 2.012 2.118 2.013 2.118 5.722 0 5.098-3.709 7.137l4.482 10.476v.246h-5.554zm-6.416-21.287v7.629h2.935q1.547 0 2.321-1.028.773-1.028.773-2.751 0-3.85-3.006-3.85h-3.023zm31.324-4.306v4.306h-6.328v21.287h-5.186v-21.287h-6.222v-4.306h17.736z" fill-rule="evenodd" fill="#FFF"/></symbol><symbol id="logo" viewBox="0 0 177 28"><g clip-path="url(#a)"><path d="M92.504 16.296q.456.36 1.572.984t2.136.624q1.02 0 1.02-.792 0-.36-.288-.636t-1.056-.636q-.768-.36-1.152-.564-.384-.204-1.02-.672-.636-.468-.972-.972-.96-1.368-.96-3.48t1.572-3.564q1.572-1.452 4.116-1.452 1.728 0 3.192.372 1.464.372 1.512.972v.144q0 .84-.528 2.124-.528 1.284-.744 1.428-1.536-.792-2.748-.792-1.212 0-1.212.864 0 .528.888.936.192.096.552.264.36.168.828.396.468.228 1.008.576t1.164.924q1.272 1.2 1.272 3.168 0 2.568-1.416 4.2-1.416 1.632-4.368 1.68-1.44 0-2.604-.24-1.164-.24-2.028-.936-.864-.696-.864-1.68t.36-1.956q.36-.972.768-1.284zm19.344-6.576v12.048q0 .48-2.376.48t-2.376-.48V9.72h-2.88q-.408 0-.576-1.104-.072-.528-.072-1.08t.072-1.08q.168-1.104.576-1.104h10.44q.408 0 .576 1.104.072.528.072 1.08t-.072 1.08q-.168 1.104-.576 1.104h-2.808zm11.964 12.672q-3.372 0-5.496-2.208-2.124-2.208-2.124-6.444t2.148-6.42q2.148-2.184 5.544-2.184 3.396 0 5.484 2.148t2.088 6.504q0 4.356-2.136 6.48-2.136 2.124-5.508 2.124zm.012-12.648q-1.152 0-1.932 1.056t-.78 2.964q0 1.908.744 2.928t1.956 1.02q1.212 0 1.968-1.032t.756-2.952q0-1.92-.78-2.952t-1.932-1.032zm14.136 6.624v5.448q0 .384-2.28.384-2.304 0-2.304-.36V6.192q0-.84.888-.84h4.584q6.312 0 6.312 4.92 0 1.488-.576 2.7-.576 1.212-1.632 1.932l3.024 5.04q-.192.576-1.248 1.32-1.44 1.032-2.376 1.032-.936 0-1.392-.672l-2.256-5.256h-.744zm.504-6.768h-.504v3.6h.12q2.28 0 2.28-1.896 0-.864-.444-1.284-.444-.42-1.452-.42zm13.776 2.424h3.096q.456 0 .456 1.68 0 .504-.108 1.188-.108.684-.396.684h-3.048v2.4h4.416q.408 0 .552 1.056.072.456.072.972t-.144 1.332q-.144.816-.48.816h-8.208q-.912 0-.912-.744V5.976q0-.624.552-.624h8.592q.504 0 .504 2.124T156.68 9.6h-4.44v2.424zM18.656 16.296q.456.36 1.572.984t2.136.624q1.02 0 1.02-.792 0-.36-.288-.636t-1.056-.636q-.768-.36-1.152-.564-.384-.204-1.02-.672-.636-.468-.972-.972-.96-1.368-.96-3.48t1.572-3.564q1.572-1.452 4.116-1.452 1.728 0 3.192.372 1.464.372 1.512.972v.144q0 .84-.528 2.124-.528 1.284-.744 1.428-1.536-.792-2.748-.792-1.212 0-1.212.864 0 .528.888.936.192.096.552.264.36.168.828.396.468.228 1.008.576t1.164.924q1.272 1.2 1.272 3.168 0 2.568-1.416 4.2-1.416 1.632-4.368 1.68-1.44 0-2.604-.24-1.164-.24-2.028-.936-.864-.696-.864-1.68t.36-1.956q.36-.972.768-1.284zM32.864 22.2q-2.184 0-2.184-.48V6.168q0-.816.744-.816h4.224q3.552 0 5.124 1.464 1.572 1.464 1.572 4.248 0 2.304-1.488 4.224-.744.96-2.184 1.536-1.44.576-3.36.576v4.296q0 .288-.9.396-.9.108-1.548.108zm2.952-12.672h-.504v3.792h.312q.84 0 1.416-.528t.576-1.488q0-.96-.396-1.368-.396-.408-1.404-.408zm15.78 12.864q-3.372 0-5.496-2.208-2.124-2.208-2.124-6.444t2.148-6.42q2.148-2.184 5.544-2.184 3.396 0 5.484 2.148t2.088 6.504q0 4.356-2.136 6.48-2.136 2.124-5.508 2.124zm.012-12.648q-1.152 0-1.932 1.056t-.78 2.964q0 1.908.744 2.928t1.956 1.02q1.212 0 1.968-1.032t.756-2.952q0-1.92-.78-2.952t-1.932-1.032zm14.136 6.624v5.448q0 .384-2.28.384-2.304 0-2.304-.36V6.192q0-.84.888-.84h4.584q6.312 0 6.312 4.92 0 1.488-.576 2.7-.576 1.212-1.632 1.932l3.024 5.04q-.192.576-1.248 1.32-1.44 1.032-2.376 1.032-.936 0-1.392-.672l-2.256-5.256h-.744zm.504-6.768h-.504v3.6h.12q2.28 0 2.28-1.896 0-.864-.444-1.284-.444-.42-1.452-.42zm16.296.12v12.048q0 .48-2.376.48t-2.376-.48V9.72h-2.88q-.408 0-.576-1.104-.072-.528-.072-1.08t.072-1.08q.168-1.104.576-1.104h10.44q.408 0 .576 1.104.072.528.072 1.08t-.072 1.08q-.168 1.104-.576 1.104h-2.808z" fill-rule="evenodd"/></g></symbol><symbol id="Logo_NIKE" viewBox="135.5 361.375 200 72"><path d="M159.23 431.966c-5.84-.232-10.618-1.83-14.354-4.798-.713-.567-2.412-2.267-2.982-2.984-1.515-1.905-2.545-3.759-3.232-5.816-2.114-6.332-1.026-14.641 3.112-23.76 3.543-7.807 9.01-15.55 18.548-26.274 1.405-1.578 5.589-6.193 5.616-6.193.01 0-.218.395-.505.876-2.48 4.154-4.602 9.047-5.758 13.283-1.857 6.797-1.633 12.63.656 17.153 1.579 3.116 4.286 5.815 7.33 7.307 5.329 2.611 13.131 2.827 22.659.632.656-.152 33.162-8.781 72.236-19.176a88696.433 88696.433 0 0 1 71.054-18.888c.011.009-90.78 38.859-137.911 59.014-7.464 3.191-9.46 3.997-12.969 5.229-8.97 3.15-17.005 4.653-23.5 4.395z"/></symbol><symbol id="nike-logo" viewBox="0 0 192.756 192.756"><g fill-rule="evenodd" clip-rule="evenodd"><path fill="#fff" d="M0 0h192.756v192.756H0V0z"/><path d="M34.175 107.36c-1.488 0-2.653 1.041-2.653 2.56 0 1.52 1.171 2.555 2.653 2.555 1.481 0 2.653-1.042 2.653-2.555 0-1.519-1.166-2.56-2.653-2.56zm0 4.383c-1.061 0-1.848-.775-1.848-1.823 0-1.047.781-1.828 1.848-1.828 1.054 0 1.847.793 1.847 1.828 0 1.029-.8 1.823-1.847 1.823zM59.99 98.406H47.075l1.468-22.448-8.387 22.448H28.163l19.029-50.739h12.761L58.48 70.423l8.546-22.756H79.02L59.99 98.406zm1.558 0l19.028-50.739h11.993L73.541 98.406H61.548z"/><path d="M26.78 80.917c-16.759 19.681-32.568 45.868-18.604 57.927 13.531 11.686 30.444 4.767 41.976.154s138.995-59.965 138.995-59.965c1.23-.615 1-1.384-.538-1-.62.155-138.764 37.593-138.764 37.593-17.53 4.921-37.518-5.804-23.065-34.709z"/><path d="M34.627 110.1c.372-.018.663-.21.663-.725 0-.664-.434-.831-1.159-.831h-1.042v2.753h.695v-1.172h.117l.633 1.172h.799l-.706-1.197zm-.446-.446h-.396v-.639h.334c.205 0 .44.024.44.291 0 .286-.136.348-.378.348zm120.552-62.142c-1.488 0-2.653 1.042-2.653 2.56 0 1.519 1.172 2.554 2.653 2.554s2.653-1.042 2.653-2.554c.001-1.518-1.164-2.56-2.653-2.56zm0 4.384c-1.061 0-1.848-.775-1.848-1.823 0-1.047.781-1.828 1.848-1.828 1.054 0 1.848.793 1.848 1.828 0 1.029-.8 1.823-1.848 1.823z"/><path d="M155.186 50.252c.372-.018.664-.21.664-.725 0-.664-.435-.831-1.159-.831h-1.042v2.752h.694v-1.171h.118l.632 1.171h.8l-.707-1.196zm-.447-.446h-.396v-.639h.335c.204 0 .44.025.44.292 0 .285-.137.347-.379.347zm-7.908 6.318l3.223-8.457H113.46l-12.565 15.222 5.801-15.222H94.549L75.673 98.406h11.993l8.059-21.218.552 21.218 36.799-.08 3.503-9.76h-13.991l4.597-12.3h11.531l3.548-9.456h-11.531l3.953-10.686h12.145zm-38.656 38.899l-.769-26.445 18.133-19.909-17.364 46.354z"/></g></symbol><symbol id="Soccer_ball_animated" viewBox="-105 -105 210 210"><circle r="100" fill="#fff"/><circle r="100" fill="url(#b)"/><g><animateTransform attributeName="transform" attributeType="XML" type="rotate" from="0" to="360" begin="0s" dur="3s" repeatCount="indefinite"/><use xlink:href="#c" stroke="#EEE" stroke-width="7"/><use xlink:href="#c" stroke="#DDD" stroke-width="4"/><use xlink:href="#c" stroke="#999" stroke-width="2"/><use xlink:href="#c" stroke="#000"/></g><circle r="100" fill="url(#d)"/></symbol><symbol id="star" viewBox="0 0 19.481 19.481"><path d="M10.201.758l2.478 5.865 6.344.545a.5.5 0 0 1 .285.876l-4.812 4.169 1.442 6.202a.5.5 0 0 1-.745.541l-5.452-3.288-5.452 3.288a.5.5 0 0 1-.745-.541l1.442-6.202-4.813-4.17a.5.5 0 0 1 .285-.876l6.344-.545L9.28.758a.5.5 0 0 1 .921 0z" fill="#FFDA44"/></symbol><symbol id="the-north-face-logo" viewBox="0 0 192.744 192.744"><g fill-rule="evenodd" clip-rule="evenodd"><path fill="#fff" d="M0 0h192.744v192.744H0V0z"/><path d="M119.305 64.872v-3.816h-15.266v20.952h15.266v-3.456h-11.018v-5.688h9.649V69.12h-9.649v-4.248h11.018zm-4.248 19.296v8.064h-8.354v-8.064h-4.318v20.881h4.318v-9.361h8.354v9.361h4.248V84.168h-4.248zm4.248 26.783v-3.742h-15.266v21.238h15.266v-3.814h-11.018v-5.617h9.649v-3.455h-9.649v-4.61h11.018zm-17.713-49.895h-4.248v8.064h-8.352v-8.064h-4.248v20.952h4.248v-9.36h8.352v9.36h4.248V61.056zm-35.136 0v3.816h6.48v17.136h4.248V64.872h6.48v-3.816H66.456zM53.064 83.592c-6.696 0-10.224 3.816-10.224 11.016 0 7.56 3.528 11.304 10.224 11.304s10.152-3.744 10.152-11.304c0-7.2-3.456-11.016-10.152-11.016zm-5.616 11.016c0-4.824 1.872-7.2 5.616-7.2 4.032 0 5.904 2.376 5.904 7.2 0 5.113-1.872 7.56-5.904 7.56-3.744 0-5.616-2.447-5.616-7.56zM36.72 84.168v14.76l-8.352-14.76h-4.536v20.881h4.032V90.36l8.568 14.689h4.536V84.168H36.72zm19.8 31.68v-4.897h10.728v-3.742H52.272v21.238h4.248v-8.855h9.432v-3.744H56.52zm44.281-27.936v-3.744H83.664v3.744h6.408v17.137h4.32V87.912h6.409zm-26.569 9.145c1.368 0 2.448.215 2.952.791l.792 7.201H82.8v-.504c-.504-.289-.792-1.584-.792-4.033 0-2.951-1.08-4.536-2.664-5.328 2.16-.864 3.24-2.448 3.24-5.112 0-3.744-2.16-5.904-6.696-5.904H65.376v20.881h4.32v-7.992h4.536zm-4.536-3.529v-5.616h5.328c2.16 0 3.24.792 3.24 2.664s-1.08 2.952-3.456 2.952h-5.112zm7.488 13.681h-5.112l-7.488 21.238h4.536l1.656-4.607h7.776l1.296 4.607h4.608l-7.272-21.238zm-2.664 4.822l2.664 8.354h-5.328l2.664-8.354zm23.617 2.16h4.248c-.217-1.871-.793-3.455-2.09-4.824-1.871-1.584-4.031-2.664-6.983-2.664s-5.112 1.08-6.984 2.953c-1.584 1.871-2.664 4.535-2.664 8.064 0 7.488 3.168 11.23 9.36 11.23 5.4 0 8.351-2.664 9.361-7.775h-4.248c-.576 2.447-2.449 3.744-4.825 3.744-3.528 0-5.112-2.375-5.112-6.984 0-5.039 1.584-7.488 5.112-7.488 2.376 0 3.745 1.369 4.825 3.744zM44.712 128.16h.072-.072zm.072 0c.72 0 1.296-.289 1.729-.648.36-.432.647-1.008.647-1.799 0-.865-.288-1.441-.647-1.801-.432-.359-1.008-.576-1.729-.576h-.072c-.864 0-1.44.217-1.8.576-.359.359-.576.936-.576 1.801v.07c0 .721.216 1.297.576 1.729.36.359.937.648 1.8.648h.072zm-.072.576c-1.008 0-1.728-.359-2.232-.865-.504-.504-.72-1.223-.72-2.088v-.07c0-1.01.216-1.729.72-2.232.504-.504 1.224-.721 2.232-.721h.072c.864 0 1.584.217 2.088.721s.864 1.223.864 2.232c0 .936-.36 1.654-.864 2.158a2.921 2.921 0 0 1-2.088.865h-.072zm.288-3.312h.072c.288 0 .432-.145.432-.504v-.072s-.072 0-.072-.072c-.072-.072-.216-.072-.432-.072h-.792v.721H45v-.001zm.504.504l.576.721c.072.143 0 .287-.072.359-.144.145-.36.072-.432 0l-.72-1.008h-.648v.791c0 .145-.144.289-.288.289s-.288-.145-.288-.289v-2.375c0-.145.144-.287.288-.287h1.152c.288 0 .576.07.72.215.072.072.144.072.144.145.144.145.144.287.144.432 0 .575-.144.862-.576 1.007zm76.752-64.872c13.393 0 24.984 4.896 34.344 14.256 9.648 9.648 14.473 21.168 14.473 34.631v18.504h-19.584v-19.08c0-7.486-2.664-13.967-8.064-19.295-1.297-1.368-2.664-2.448-4.248-3.528-4.32-2.952-9.432-4.248-14.76-4.248h-2.16v-21.24h-.001zm27.359 67.391h-15.264v-14.76c0-2.447-.791-4.32-2.447-5.904-1.584-1.654-3.744-2.447-5.904-2.447h-3.744V84.168h2.16c5.615 0 10.439 1.584 14.76 4.824 1.08.504 2.16 1.584 2.951 2.376 5.113 5.113 7.488 11.017 7.488 18v19.079zm-17.135 0h-10.225v-21.238H126c1.656 0 3.24.574 4.607 1.871 1.08 1.08 1.873 2.736 1.873 4.607v14.76z"/></g></symbol><symbol id="tommy-hilfiger-logo" viewBox="0 0 192.756 192.756"><g fill-rule="evenodd" clip-rule="evenodd"><path fill="#fff" d="M0 0h192.756v192.756H0V0z"/><path fill="#fff" d="M86.206 101.091h-7.867v-9.726h7.867v9.726z"/><path fill="#4f4d67" d="M78.339 91.365h7.867v2.185h-7.867v-2.185zm0 7.539h7.867v2.187h-7.867v-2.187z"/><path fill="#ca3432" d="M86.206 101.091h7.867v-9.726h-7.867v9.726z"/><path fill="#4f4d67" d="M94.073 91.365h-7.867v2.185h7.867v-2.185zm0 7.539h-7.867v2.187h7.867v-2.187z"/><path d="M4.779 101.15v-8.683H1.538v-1.164h7.788v1.164H6.085v8.683H4.779zm13.088-7.939a3.32 3.32 0 0 1 2.375-.95c.648 0 1.231.165 1.752.494.521.329.916.792 1.186 1.39.271.598.405 1.297.405 2.099 0 1.266-.316 2.245-.948 2.934-.632.689-1.438 1.034-2.416 1.034-.96 0-1.759-.342-2.395-1.024-.637-.683-.955-1.616-.955-2.803 0-1.483.332-2.541.996-3.174zm-1.775 5.605a4.311 4.311 0 0 0 1.656 1.833c.728.447 1.555.671 2.48.671a4.88 4.88 0 0 0 2.387-.607c.737-.404 1.308-1.001 1.71-1.789s.603-1.682.603-2.68c0-.985-.191-1.866-.573-2.643a4.246 4.246 0 0 0-1.666-1.817c-.728-.434-1.546-.651-2.454-.651-1.386 0-2.517.462-3.393 1.388-.876.924-1.313 2.203-1.313 3.837 0 .865.187 1.683.563 2.458zm15.99 2.334v-9.848h1.95l2.333 6.97c.215.649.371 1.135.47 1.457.114-.358.289-.884.528-1.578l2.378-6.849h1.739v9.848h-1.253v-8.236l-2.877 8.236h-1.174l-2.842-8.379v8.379h-1.252zm16.953 0v-9.848h1.951l2.332 6.97c.215.649.372 1.135.471 1.457.113-.358.289-.884.529-1.578l2.378-6.849h1.739v9.848h-1.253v-8.236l-2.877 8.236H53.13l-2.842-8.379v8.379h-1.253zm19.765 0v-4.172l-3.795-5.676h1.568l1.941 2.983a26.65 26.65 0 0 1 1.011 1.657c.303-.515.663-1.096 1.08-1.743l1.907-2.897h1.517l-3.921 5.676v4.172H68.8zm31.667 0v-9.847h1.306v4.047h5.102v-4.047h1.309v9.847h-1.309v-4.636h-5.102v4.636h-1.306zm14.232 0v-9.847h1.307v9.847h-1.307zm7.66 0v-9.847h1.307v8.684h4.852v1.163h-6.159zm11.879 0v-9.847h6.66v1.164h-5.353v3.044h4.637v1.163h-4.637v4.476h-1.307zm12.703 0v-9.847h1.307v9.847h-1.307zm12.313-3.858v-1.163h4.172v3.654a7.287 7.287 0 0 1-1.979 1.151 5.852 5.852 0 0 1-2.094.386c-.965 0-1.842-.207-2.631-.62a4.108 4.108 0 0 1-1.789-1.799c-.4-.783-.604-1.66-.604-2.628 0-.958.201-1.853.602-2.685s.977-1.448 1.727-1.852c.75-.403 1.617-.604 2.596-.604.711 0 1.354.115 1.928.346.576.23 1.025.552 1.354.964.326.412.574.95.744 1.612l-1.172.322c-.148-.502-.33-.897-.551-1.185-.219-.287-.531-.517-.938-.689a3.442 3.442 0 0 0-1.355-.259c-.596 0-1.111.091-1.543.272-.436.182-.785.421-1.049.718a3.379 3.379 0 0 0-.623.977 5.192 5.192 0 0 0-.375 1.987c0 .88.15 1.616.453 2.209s.74 1.032 1.318 1.32a4.068 4.068 0 0 0 1.838.431c.562 0 1.113-.109 1.65-.327s.943-.449 1.221-.698v-1.84h-2.9zm10.273 3.858v-9.847h7.088v1.164h-5.781v3.008h5.406v1.164h-5.406v3.348h6.016v1.163h-7.323zm14.567-8.754h3.117c.73 0 1.266.149 1.604.45.338.3.508.684.508 1.149 0 .318-.088.612-.262.883a1.49 1.49 0 0 1-.766.592c-.338.123-.803.185-1.398.185h-2.803v-3.259zm0 8.754v-4.368h1.512c.336 0 .578.015.725.047.203.049.402.136.596.262.195.125.416.345.662.658s.559.764.941 1.354l1.301 2.047h1.629l-1.705-2.678a6.7 6.7 0 0 0-1.078-1.308c-.18-.162-.441-.325-.785-.491.945-.129 1.643-.434 2.096-.914s.678-1.069.678-1.768c0-.543-.137-1.038-.408-1.486a2.204 2.204 0 0 0-1.096-.938c-.457-.176-1.125-.265-2.002-.265h-4.371v9.848h1.305z"/></g></symbol><symbol id="vans-logo" viewBox="0 0 192.756 192.756"><g fill-rule="evenodd" clip-rule="evenodd"><path fill="#fff" d="M0 0h192.756v192.756H0V0z"/><path d="M8.504 37.451h18.639l10.328 71.031 10.075-71.031h127.706l-4.281 20.403H63.164l-16.373 93.449h-18.64L8.504 37.451z"/><path d="M178.527 124.855c.504 11.082-5.793 27.959-19.648 27.959-16.119 0-19.646-19.898-19.646-28.211h13.098c0 4.785 4.031 9.572 7.053 9.572 3.023 0 6.047-3.779 6.047-6.297 0-2.52-1.008-6.297-5.793-9.572-15.619-9.32-19.145-20.152-19.145-29.471-.504-11.083 4.785-27.456 18.639-27.456 13.855 0 17.633 19.396 17.633 27.456h-12.342c0-4.534-3.023-7.808-6.045-7.808-3.023 0-5.039 3.022-5.039 5.542 0 2.519.504 4.786 5.291 8.06 6.548 3.023 19.897 12.846 19.897 30.226zm.748 21.411a4.031 4.031 0 0 1 4.037 4.037 4.036 4.036 0 0 1-4.037 4.062 4.05 4.05 0 0 1-4.062-4.062c0-2.235 1.816-4.037 4.062-4.037v-.939c-2.768 0-5.002 2.234-5.002 4.977a4.995 4.995 0 0 0 5.002 5.002c2.742 0 4.977-2.234 4.977-5.002a4.985 4.985 0 0 0-4.977-4.977v.939z"/><path d="M178.273 148.438h1.307c.521 0 1.283 0 1.283.697 0 .686-.42.826-1.016.812h-1.574v.801h1.053l1.193 2.285h1.232l-1.309-2.285c.953-.064 1.473-.471 1.473-1.447 0-.559-.152-1.08-.635-1.396-.406-.254-1.002-.268-1.459-.268h-2.604v5.396h1.055v-4.595h.001zm-108.561-27.36l5.038-32.746 5.038 32.746H69.712zm-3.022 18.387h15.617l2.015 11.838h24.936v-46.85l15.365 46.85h12.846V64.151h-13.098v44.332l-14.609-44.332H96.161v81.863L82.055 64.151h-14.61l-15.113 87.152h12.846l1.512-11.838z"/></g></symbol></svg>