<svg viewBox="0 0 52 52" xmlns="http://www.w3.org/2000/svg"><path d="M23.36 21.803c0 .539.149.965.447 1.278.299.314.865.615 1.702.905v-4.174c-.672.065-1.198.278-1.579.64-.38.362-.57.812-.57 1.35zM26.942 27.363v4.343c.716-.08 1.283-.305 1.7-.676.419-.37.628-.836.628-1.399s-.164-1.009-.493-1.339-.94-.639-1.835-.929z"/><path d="M50 9.44l-.02-1.01-1.02.03c-8.12.3-22.4-6.28-22.54-6.34l-.42-.2-.42.2c-.14.06-14.42 6.64-22.54 6.34l-1.01-.03L2 9.44c0 .32-.53 32.07 23.57 40.53l.33.11.33-.11C50.32 41.51 50.01 9.76 50 9.44zm-19.387 23.4c-.925.885-2.15 1.367-3.671 1.448v1.737h-1.433v-1.762c-2.046-.225-3.881-1.101-5.508-2.63l1.635-2.098c1.253 1.174 2.544 1.874 3.873 2.099v-4.68c-1.687-.435-2.922-1.006-3.706-1.714-.783-.707-1.175-1.757-1.175-3.148 0-1.39.451-2.529 1.355-3.413.902-.885 2.078-1.367 3.526-1.448v-1.206h1.433v1.23c1.641.129 3.194.732 4.656 1.81l-1.455 2.219c-.985-.756-2.052-1.222-3.201-1.4v4.536h.067c1.716.435 2.977 1.022 3.783 1.761.806.74 1.21 1.814 1.21 3.221s-.464 2.554-1.389 3.438z"/></svg>