<svg xmlns="http://www.w3.org/2000/svg" viewBox="0 0 100 100"><g fill="#353535"><path d="M98.8 66.2l-4.4-7.5c-1.2-2.5-3.8-4.4-6.9-4.4H80c-.6 0-1.3.1-1.9.2v-5.9c0-2.5-2.5-5-5-5H15.6c-1.9 0-3.1 1.2-3.1 3.1s1.2 3.1 3.1 3.1h56.2v34.8c-.8.8-1.4 1.7-1.9 2.7h-28c-1.2-2.9-4.1-5-7.5-5s-6.3 2.1-7.5 5H15.6c-1.9 0-3.1 1.2-3.1 3.1s1.2 3.1 3.1 3.1h11.2c1.2 2.9 4.1 5 7.5 5s6.3-2.1 7.5-5H70c1.2 2.9 4.1 5 7.5 5s6.3-2.1 7.5-5h6.9c4.4 0 8.1-3.8 8.1-8.8V70.6c0-1.2-.6-3.1-1.2-4.4zm-5 18.8c0 1.2-.6 2.5-1.9 2.5H85c-1.1-2.8-3.8-4.7-6.9-5V63.1c0-1.2.6-2.5 1.9-2.5h6.9c.6 0 1.2.6 1.9 1.2l4.4 7.5c.6.6.6.6.6 1.2V85z"/><path d="M6.2 62.5h31.9c1.9 0 3.1-1.2 3.1-3.1s-1.2-3.1-3.1-3.1H6.2c-1.9 0-3.1 1.2-3.1 3.1s1.3 3.1 3.1 3.1zM38.1 71.9c0-1.9-1.2-3.1-3.1-3.1H3.1C1.2 68.8 0 70 0 71.9S1.2 75 3.1 75H35c1.9 0 3.1-1.2 3.1-3.1z"/></g></svg>