<?xml version="1.0" standalone="no"?><!-- Generator: Gravit.io --><svg xmlns="http://www.w3.org/2000/svg" xmlns:xlink="http://www.w3.org/1999/xlink" style="isolation:isolate" viewBox="484.432 283.453 205.523 26.297" width="205.523" height="26.297"><path d=" M 605.422 302.684 L 605.422 302.684 L 605.422 302.684 Q 605.422 301.119 604.622 300.319 L 604.622 300.319 L 604.622 300.319 Q 603.822 299.52 601.713 298.658 L 601.713 298.658 L 601.713 298.658 Q 597.863 297.199 596.176 295.239 L 596.176 295.239 L 596.176 295.239 Q 594.488 293.279 594.488 290.607 L 594.488 290.607 L 594.488 290.607 Q 594.488 287.373 596.782 285.413 L 596.782 285.413 L 596.782 285.413 Q 599.076 283.453 602.609 283.453 L 602.609 283.453 L 602.609 283.453 Q 604.965 283.453 606.811 284.446 L 606.811 284.446 L 606.811 284.446 Q 608.656 285.439 609.649 287.25 L 609.649 287.25 L 609.649 287.25 Q 610.643 289.061 610.643 291.363 L 610.643 291.363 L 605.492 291.363 L 605.492 291.363 Q 605.492 289.57 604.728 288.63 L 604.728 288.63 L 604.728 288.63 Q 603.963 287.689 602.521 287.689 L 602.521 287.689 L 602.521 287.689 Q 601.168 287.689 600.412 288.489 L 600.412 288.489 L 600.412 288.489 Q 599.656 289.289 599.656 290.643 L 599.656 290.643 L 599.656 290.643 Q 599.656 291.697 600.5 292.55 L 600.5 292.55 L 600.5 292.55 Q 601.344 293.402 603.488 294.316 L 603.488 294.316 L 603.488 294.316 Q 607.232 295.67 608.929 297.639 L 608.929 297.639 L 608.929 297.639 Q 610.625 299.607 610.625 302.648 L 610.625 302.648 L 610.625 302.648 Q 610.625 305.988 608.498 307.869 L 608.498 307.869 L 608.498 307.869 Q 606.371 309.75 602.715 309.75 L 602.715 309.75 L 602.715 309.75 Q 600.236 309.75 598.197 308.73 L 598.197 308.73 L 598.197 308.73 Q 596.158 307.711 595.007 305.813 L 595.007 305.813 L 595.007 305.813 Q 593.855 303.914 593.855 301.33 L 593.855 301.33 L 599.041 301.33 L 599.041 301.33 Q 599.041 303.545 599.902 304.547 L 599.902 304.547 L 599.902 304.547 Q 600.764 305.549 602.715 305.549 L 602.715 305.549 L 602.715 305.549 Q 605.422 305.549 605.422 302.684 Z  M 630.629 283.805 L 630.629 288.111 L 624.301 288.111 L 624.301 309.398 L 619.115 309.398 L 619.115 288.111 L 612.893 288.111 L 612.893 283.805 L 630.629 283.805 L 630.629 283.805 Z  M 651.617 294.527 L 651.617 298.904 L 651.617 298.904 Q 651.617 304.055 649.183 306.902 L 649.183 306.902 L 649.183 306.902 Q 646.748 309.75 642.424 309.75 L 642.424 309.75 L 642.424 309.75 Q 638.117 309.75 635.656 306.929 L 635.656 306.929 L 635.656 306.929 Q 633.195 304.107 633.16 299.027 L 633.16 299.027 L 633.16 294.65 L 633.16 294.65 Q 633.16 289.377 635.604 286.415 L 635.604 286.415 L 635.604 286.415 Q 638.047 283.453 642.389 283.453 L 642.389 283.453 L 642.389 283.453 Q 646.66 283.453 649.121 286.362 L 649.121 286.362 L 649.121 286.362 Q 651.582 289.271 651.617 294.527 L 651.617 294.527 L 651.617 294.527 Z  M 646.432 299.063 L 646.432 294.615 L 646.432 294.615 Q 646.432 291.152 645.447 289.465 L 645.447 289.465 L 645.447 289.465 Q 644.463 287.777 642.389 287.777 L 642.389 287.777 L 642.389 287.777 Q 640.332 287.777 639.348 289.403 L 639.348 289.403 L 639.348 289.403 Q 638.363 291.029 638.328 294.352 L 638.328 294.352 L 638.328 298.904 L 638.328 298.904 Q 638.328 302.262 639.33 303.853 L 639.33 303.853 L 639.33 303.853 Q 640.332 305.443 642.424 305.443 L 642.424 305.443 L 642.424 305.443 Q 644.445 305.443 645.43 303.888 L 645.43 303.888 L 645.43 303.888 Q 646.414 302.332 646.432 299.063 L 646.432 299.063 L 646.432 299.063 Z  M 666.928 309.398 L 663.078 300.047 L 660.512 300.047 L 660.512 309.398 L 655.344 309.398 L 655.344 283.805 L 663.588 283.805 L 663.588 283.805 Q 667.473 283.805 669.591 285.817 L 669.591 285.817 L 669.591 285.817 Q 671.709 287.83 671.709 291.539 L 671.709 291.539 L 671.709 291.539 Q 671.709 296.637 668 298.676 L 668 298.676 L 672.482 309.152 L 672.482 309.398 L 666.928 309.398 L 666.928 309.398 Z  M 660.512 288.111 L 660.512 295.74 L 663.447 295.74 L 663.447 295.74 Q 664.994 295.74 665.768 294.712 L 665.768 294.712 L 665.768 294.712 Q 666.541 293.684 666.541 291.961 L 666.541 291.961 L 666.541 291.961 Q 666.541 288.111 663.535 288.111 L 663.535 288.111 L 660.512 288.111 L 660.512 288.111 Z  M 688.479 294.158 L 688.479 298.324 L 680.428 298.324 L 680.428 305.109 L 689.955 305.109 L 689.955 309.398 L 675.26 309.398 L 675.26 283.805 L 689.92 283.805 L 689.92 288.111 L 680.428 288.111 L 680.428 294.158 L 688.479 294.158 L 688.479 294.158 Z  M 495.998 302.684 L 495.998 302.684 L 495.998 302.684 Q 495.998 301.119 495.198 300.319 L 495.198 300.319 L 495.198 300.319 Q 494.398 299.52 492.289 298.658 L 492.289 298.658 L 492.289 298.658 Q 488.439 297.199 486.752 295.239 L 486.752 295.239 L 486.752 295.239 Q 485.064 293.279 485.064 290.607 L 485.064 290.607 L 485.064 290.607 Q 485.064 287.373 487.358 285.413 L 487.358 285.413 L 487.358 285.413 Q 489.652 283.453 493.186 283.453 L 493.186 283.453 L 493.186 283.453 Q 495.541 283.453 497.387 284.446 L 497.387 284.446 L 497.387 284.446 Q 499.232 285.439 500.226 287.25 L 500.226 287.25 L 500.226 287.25 Q 501.219 289.061 501.219 291.363 L 501.219 291.363 L 496.068 291.363 L 496.068 291.363 Q 496.068 289.57 495.304 288.63 L 495.304 288.63 L 495.304 288.63 Q 494.539 287.689 493.098 287.689 L 493.098 287.689 L 493.098 287.689 Q 491.744 287.689 490.988 288.489 L 490.988 288.489 L 490.988 288.489 Q 490.232 289.289 490.232 290.643 L 490.232 290.643 L 490.232 290.643 Q 490.232 291.697 491.076 292.55 L 491.076 292.55 L 491.076 292.55 Q 491.92 293.402 494.064 294.316 L 494.064 294.316 L 494.064 294.316 Q 497.809 295.67 499.505 297.639 L 499.505 297.639 L 499.505 297.639 Q 501.201 299.607 501.201 302.648 L 501.201 302.648 L 501.201 302.648 Q 501.201 305.988 499.074 307.869 L 499.074 307.869 L 499.074 307.869 Q 496.947 309.75 493.291 309.75 L 493.291 309.75 L 493.291 309.75 Q 490.813 309.75 488.773 308.73 L 488.773 308.73 L 488.773 308.73 Q 486.734 307.711 485.583 305.813 L 485.583 305.813 L 485.583 305.813 Q 484.432 303.914 484.432 301.33 L 484.432 301.33 L 489.617 301.33 L 489.617 301.33 Q 489.617 303.545 490.479 304.547 L 490.479 304.547 L 490.479 304.547 Q 491.34 305.549 493.291 305.549 L 493.291 305.549 L 493.291 305.549 Q 495.998 305.549 495.998 302.684 Z  M 513.242 300.398 L 509.797 300.398 L 509.797 309.398 L 504.629 309.398 L 504.629 283.805 L 513.348 283.805 L 513.348 283.805 Q 517.145 283.805 519.403 286.16 L 519.403 286.16 L 519.403 286.16 Q 521.662 288.516 521.662 292.277 L 521.662 292.277 L 521.662 292.277 Q 521.662 296.039 519.43 298.219 L 519.43 298.219 L 519.43 298.219 Q 517.197 300.398 513.242 300.398 L 513.242 300.398 L 513.242 300.398 Z  M 509.797 288.111 L 509.797 296.092 L 513.348 296.092 L 513.348 296.092 Q 514.824 296.092 515.633 295.125 L 515.633 295.125 L 515.633 295.125 Q 516.441 294.158 516.441 292.313 L 516.441 292.313 L 516.441 292.313 Q 516.441 290.396 515.615 289.263 L 515.615 289.263 L 515.615 289.263 Q 514.789 288.129 513.4 288.111 L 513.4 288.111 L 509.797 288.111 L 509.797 288.111 Z  M 543.125 294.527 L 543.125 298.904 L 543.125 298.904 Q 543.125 304.055 540.69 306.902 L 540.69 306.902 L 540.69 306.902 Q 538.256 309.75 533.932 309.75 L 533.932 309.75 L 533.932 309.75 Q 529.625 309.75 527.164 306.929 L 527.164 306.929 L 527.164 306.929 Q 524.703 304.107 524.668 299.027 L 524.668 299.027 L 524.668 294.65 L 524.668 294.65 Q 524.668 289.377 527.111 286.415 L 527.111 286.415 L 527.111 286.415 Q 529.555 283.453 533.896 283.453 L 533.896 283.453 L 533.896 283.453 Q 538.168 283.453 540.629 286.362 L 540.629 286.362 L 540.629 286.362 Q 543.09 289.271 543.125 294.527 L 543.125 294.527 L 543.125 294.527 Z  M 537.939 299.063 L 537.939 294.615 L 537.939 294.615 Q 537.939 291.152 536.955 289.465 L 536.955 289.465 L 536.955 289.465 Q 535.971 287.777 533.896 287.777 L 533.896 287.777 L 533.896 287.777 Q 531.84 287.777 530.855 289.403 L 530.855 289.403 L 530.855 289.403 Q 529.871 291.029 529.836 294.352 L 529.836 294.352 L 529.836 298.904 L 529.836 298.904 Q 529.836 302.262 530.838 303.853 L 530.838 303.853 L 530.838 303.853 Q 531.84 305.443 533.932 305.443 L 533.932 305.443 L 533.932 305.443 Q 535.953 305.443 536.938 303.888 L 536.938 303.888 L 536.938 303.888 Q 537.922 302.332 537.939 299.063 L 537.939 299.063 L 537.939 299.063 Z  M 558.436 309.398 L 554.586 300.047 L 552.02 300.047 L 552.02 309.398 L 546.852 309.398 L 546.852 283.805 L 555.096 283.805 L 555.096 283.805 Q 558.98 283.805 561.099 285.817 L 561.099 285.817 L 561.099 285.817 Q 563.217 287.83 563.217 291.539 L 563.217 291.539 L 563.217 291.539 Q 563.217 296.637 559.508 298.676 L 559.508 298.676 L 563.99 309.152 L 563.99 309.398 L 558.436 309.398 L 558.436 309.398 Z  M 552.02 288.111 L 552.02 295.74 L 554.955 295.74 L 554.955 295.74 Q 556.502 295.74 557.275 294.712 L 557.275 294.712 L 557.275 294.712 Q 558.049 293.684 558.049 291.961 L 558.049 291.961 L 558.049 291.961 Q 558.049 288.111 555.043 288.111 L 555.043 288.111 L 552.02 288.111 L 552.02 288.111 Z  M 583.344 283.805 L 583.344 288.111 L 577.016 288.111 L 577.016 309.398 L 571.83 309.398 L 571.83 288.111 L 565.607 288.111 L 565.607 283.805 L 583.344 283.805 L 583.344 283.805 Z " fill-rule="evenodd" fill="rgb(0,0,0)"/></svg>