<?xml version="1.0" standalone="no"?><!-- Generator: Gravit.io --><svg xmlns="http://www.w3.org/2000/svg" xmlns:xlink="http://www.w3.org/1999/xlink" style="isolation:isolate" viewBox="0 0 177 28" width="177" height="28"><defs><clipPath id="_clipPath_dcGk4vc9S2SjVgJr1KKfG8kQVXYGlaFZ"><rect width="177" height="28"/></clipPath></defs><g clip-path="url(#_clipPath_dcGk4vc9S2SjVgJr1KKfG8kQVXYGlaFZ)"><path d=" M 92.504 16.296 L 92.504 16.296 L 92.504 16.296 Q 92.96 16.656 94.076 17.28 L 94.076 17.28 L 94.076 17.28 Q 95.192 17.904 96.212 17.904 L 96.212 17.904 L 96.212 17.904 Q 97.232 17.904 97.232 17.112 L 97.232 17.112 L 97.232 17.112 Q 97.232 16.752 96.944 16.476 L 96.944 16.476 L 96.944 16.476 Q 96.656 16.2 95.888 15.84 L 95.888 15.84 L 95.888 15.84 Q 95.12 15.48 94.736 15.276 L 94.736 15.276 L 94.736 15.276 Q 94.352 15.072 93.716 14.604 L 93.716 14.604 L 93.716 14.604 Q 93.08 14.136 92.744 13.632 L 92.744 13.632 L 92.744 13.632 Q 91.784 12.264 91.784 10.152 L 91.784 10.152 L 91.784 10.152 Q 91.784 8.04 93.356 6.588 L 93.356 6.588 L 93.356 6.588 Q 94.928 5.136 97.472 5.136 L 97.472 5.136 L 97.472 5.136 Q 99.2 5.136 100.664 5.508 L 100.664 5.508 L 100.664 5.508 Q 102.128 5.88 102.176 6.48 L 102.176 6.48 L 102.176 6.48 Q 102.176 6.552 102.176 6.624 L 102.176 6.624 L 102.176 6.624 Q 102.176 7.464 101.648 8.748 L 101.648 8.748 L 101.648 8.748 Q 101.12 10.032 100.904 10.176 L 100.904 10.176 L 100.904 10.176 Q 99.368 9.384 98.156 9.384 L 98.156 9.384 L 98.156 9.384 Q 96.944 9.384 96.944 10.248 L 96.944 10.248 L 96.944 10.248 Q 96.944 10.776 97.832 11.184 L 97.832 11.184 L 97.832 11.184 Q 98.024 11.28 98.384 11.448 L 98.384 11.448 L 98.384 11.448 Q 98.744 11.616 99.212 11.844 L 99.212 11.844 L 99.212 11.844 Q 99.68 12.072 100.22 12.42 L 100.22 12.42 L 100.22 12.42 Q 100.76 12.768 101.384 13.344 L 101.384 13.344 L 101.384 13.344 Q 102.656 14.544 102.656 16.512 L 102.656 16.512 L 102.656 16.512 Q 102.656 19.08 101.24 20.712 L 101.24 20.712 L 101.24 20.712 Q 99.824 22.344 96.872 22.392 L 96.872 22.392 L 96.872 22.392 Q 95.432 22.392 94.268 22.152 L 94.268 22.152 L 94.268 22.152 Q 93.104 21.912 92.24 21.216 L 92.24 21.216 L 92.24 21.216 Q 91.376 20.52 91.376 19.536 L 91.376 19.536 L 91.376 19.536 Q 91.376 18.552 91.736 17.58 L 91.736 17.58 L 91.736 17.58 Q 92.096 16.608 92.504 16.296 Z  M 111.848 9.72 L 111.848 21.768 L 111.848 21.768 Q 111.848 22.248 109.472 22.248 L 109.472 22.248 L 109.472 22.248 Q 107.096 22.248 107.096 21.768 L 107.096 21.768 L 107.096 9.72 L 104.216 9.72 L 104.216 9.72 Q 103.808 9.72 103.64 8.616 L 103.64 8.616 L 103.64 8.616 Q 103.568 8.088 103.568 7.536 L 103.568 7.536 L 103.568 7.536 Q 103.568 6.984 103.64 6.456 L 103.64 6.456 L 103.64 6.456 Q 103.808 5.352 104.216 5.352 L 104.216 5.352 L 114.656 5.352 L 114.656 5.352 Q 115.064 5.352 115.232 6.456 L 115.232 6.456 L 115.232 6.456 Q 115.304 6.984 115.304 7.536 L 115.304 7.536 L 115.304 7.536 Q 115.304 8.088 115.232 8.616 L 115.232 8.616 L 115.232 8.616 Q 115.064 9.72 114.656 9.72 L 114.656 9.72 L 111.848 9.72 L 111.848 9.72 Z  M 123.812 22.392 L 123.812 22.392 L 123.812 22.392 Q 120.44 22.392 118.316 20.184 L 118.316 20.184 L 118.316 20.184 Q 116.192 17.976 116.192 13.74 L 116.192 13.74 L 116.192 13.74 Q 116.192 9.504 118.34 7.32 L 118.34 7.32 L 118.34 7.32 Q 120.488 5.136 123.884 5.136 L 123.884 5.136 L 123.884 5.136 Q 127.28 5.136 129.368 7.284 L 129.368 7.284 L 129.368 7.284 Q 131.456 9.432 131.456 13.788 L 131.456 13.788 L 131.456 13.788 Q 131.456 18.144 129.32 20.268 L 129.32 20.268 L 129.32 20.268 Q 127.184 22.392 123.812 22.392 Z  M 123.824 9.744 L 123.824 9.744 L 123.824 9.744 Q 122.672 9.744 121.892 10.8 L 121.892 10.8 L 121.892 10.8 Q 121.112 11.856 121.112 13.764 L 121.112 13.764 L 121.112 13.764 Q 121.112 15.672 121.856 16.692 L 121.856 16.692 L 121.856 16.692 Q 122.6 17.712 123.812 17.712 L 123.812 17.712 L 123.812 17.712 Q 125.024 17.712 125.78 16.68 L 125.78 16.68 L 125.78 16.68 Q 126.536 15.648 126.536 13.728 L 126.536 13.728 L 126.536 13.728 Q 126.536 11.808 125.756 10.776 L 125.756 10.776 L 125.756 10.776 Q 124.976 9.744 123.824 9.744 Z  M 137.96 16.368 L 137.96 21.816 L 137.96 21.816 Q 137.96 22.2 135.68 22.2 L 135.68 22.2 L 135.68 22.2 Q 133.376 22.2 133.376 21.84 L 133.376 21.84 L 133.376 6.192 L 133.376 6.192 Q 133.376 5.352 134.264 5.352 L 134.264 5.352 L 138.848 5.352 L 138.848 5.352 Q 145.16 5.352 145.16 10.272 L 145.16 10.272 L 145.16 10.272 Q 145.16 11.76 144.584 12.972 L 144.584 12.972 L 144.584 12.972 Q 144.008 14.184 142.952 14.904 L 142.952 14.904 L 145.976 19.944 L 145.976 19.944 Q 145.784 20.52 144.728 21.264 L 144.728 21.264 L 144.728 21.264 Q 143.288 22.296 142.352 22.296 L 142.352 22.296 L 142.352 22.296 Q 141.416 22.296 140.96 21.624 L 140.96 21.624 L 138.704 16.368 L 137.96 16.368 L 137.96 16.368 Z  M 138.464 9.6 L 137.96 9.6 L 137.96 13.2 L 138.08 13.2 L 138.08 13.2 Q 140.36 13.2 140.36 11.304 L 140.36 11.304 L 140.36 11.304 Q 140.36 10.44 139.916 10.02 L 139.916 10.02 L 139.916 10.02 Q 139.472 9.6 138.464 9.6 L 138.464 9.6 L 138.464 9.6 Z  M 152.24 12.024 L 155.336 12.024 L 155.336 12.024 Q 155.792 12.024 155.792 13.704 L 155.792 13.704 L 155.792 13.704 Q 155.792 14.208 155.684 14.892 L 155.684 14.892 L 155.684 14.892 Q 155.576 15.576 155.288 15.576 L 155.288 15.576 L 152.24 15.576 L 152.24 17.976 L 156.656 17.976 L 156.656 17.976 Q 157.064 17.976 157.208 19.032 L 157.208 19.032 L 157.208 19.032 Q 157.28 19.488 157.28 20.004 L 157.28 20.004 L 157.28 20.004 Q 157.28 20.52 157.136 21.336 L 157.136 21.336 L 157.136 21.336 Q 156.992 22.152 156.656 22.152 L 156.656 22.152 L 148.448 22.152 L 148.448 22.152 Q 147.536 22.152 147.536 21.408 L 147.536 21.408 L 147.536 5.976 L 147.536 5.976 Q 147.536 5.352 148.088 5.352 L 148.088 5.352 L 156.68 5.352 L 156.68 5.352 Q 157.184 5.352 157.184 7.476 L 157.184 7.476 L 157.184 7.476 Q 157.184 9.6 156.68 9.6 L 156.68 9.6 L 152.24 9.6 L 152.24 12.024 L 152.24 12.024 Z  M 18.656 16.296 L 18.656 16.296 L 18.656 16.296 Q 19.112 16.656 20.228 17.28 L 20.228 17.28 L 20.228 17.28 Q 21.344 17.904 22.364 17.904 L 22.364 17.904 L 22.364 17.904 Q 23.384 17.904 23.384 17.112 L 23.384 17.112 L 23.384 17.112 Q 23.384 16.752 23.096 16.476 L 23.096 16.476 L 23.096 16.476 Q 22.808 16.2 22.04 15.84 L 22.04 15.84 L 22.04 15.84 Q 21.272 15.48 20.888 15.276 L 20.888 15.276 L 20.888 15.276 Q 20.504 15.072 19.868 14.604 L 19.868 14.604 L 19.868 14.604 Q 19.232 14.136 18.896 13.632 L 18.896 13.632 L 18.896 13.632 Q 17.936 12.264 17.936 10.152 L 17.936 10.152 L 17.936 10.152 Q 17.936 8.04 19.508 6.588 L 19.508 6.588 L 19.508 6.588 Q 21.08 5.136 23.624 5.136 L 23.624 5.136 L 23.624 5.136 Q 25.352 5.136 26.816 5.508 L 26.816 5.508 L 26.816 5.508 Q 28.28 5.88 28.328 6.48 L 28.328 6.48 L 28.328 6.48 Q 28.328 6.552 28.328 6.624 L 28.328 6.624 L 28.328 6.624 Q 28.328 7.464 27.8 8.748 L 27.8 8.748 L 27.8 8.748 Q 27.272 10.032 27.056 10.176 L 27.056 10.176 L 27.056 10.176 Q 25.52 9.384 24.308 9.384 L 24.308 9.384 L 24.308 9.384 Q 23.096 9.384 23.096 10.248 L 23.096 10.248 L 23.096 10.248 Q 23.096 10.776 23.984 11.184 L 23.984 11.184 L 23.984 11.184 Q 24.176 11.28 24.536 11.448 L 24.536 11.448 L 24.536 11.448 Q 24.896 11.616 25.364 11.844 L 25.364 11.844 L 25.364 11.844 Q 25.832 12.072 26.372 12.42 L 26.372 12.42 L 26.372 12.42 Q 26.912 12.768 27.536 13.344 L 27.536 13.344 L 27.536 13.344 Q 28.808 14.544 28.808 16.512 L 28.808 16.512 L 28.808 16.512 Q 28.808 19.08 27.392 20.712 L 27.392 20.712 L 27.392 20.712 Q 25.976 22.344 23.024 22.392 L 23.024 22.392 L 23.024 22.392 Q 21.584 22.392 20.42 22.152 L 20.42 22.152 L 20.42 22.152 Q 19.256 21.912 18.392 21.216 L 18.392 21.216 L 18.392 21.216 Q 17.528 20.52 17.528 19.536 L 17.528 19.536 L 17.528 19.536 Q 17.528 18.552 17.888 17.58 L 17.888 17.58 L 17.888 17.58 Q 18.248 16.608 18.656 16.296 Z  M 32.864 22.2 L 32.864 22.2 L 32.864 22.2 Q 30.68 22.2 30.68 21.72 L 30.68 21.72 L 30.68 6.168 L 30.68 6.168 Q 30.68 5.352 31.424 5.352 L 31.424 5.352 L 35.648 5.352 L 35.648 5.352 Q 39.2 5.352 40.772 6.816 L 40.772 6.816 L 40.772 6.816 Q 42.344 8.28 42.344 11.064 L 42.344 11.064 L 42.344 11.064 Q 42.344 13.368 40.856 15.288 L 40.856 15.288 L 40.856 15.288 Q 40.112 16.248 38.672 16.824 L 38.672 16.824 L 38.672 16.824 Q 37.232 17.4 35.312 17.4 L 35.312 17.4 L 35.312 21.696 L 35.312 21.696 Q 35.312 21.984 34.412 22.092 L 34.412 22.092 L 34.412 22.092 Q 33.512 22.2 32.864 22.2 Z  M 35.816 9.528 L 35.312 9.528 L 35.312 13.32 L 35.624 13.32 L 35.624 13.32 Q 36.464 13.32 37.04 12.792 L 37.04 12.792 L 37.04 12.792 Q 37.616 12.264 37.616 11.304 L 37.616 11.304 L 37.616 11.304 Q 37.616 10.344 37.22 9.936 L 37.22 9.936 L 37.22 9.936 Q 36.824 9.528 35.816 9.528 L 35.816 9.528 L 35.816 9.528 Z  M 51.596 22.392 L 51.596 22.392 L 51.596 22.392 Q 48.224 22.392 46.1 20.184 L 46.1 20.184 L 46.1 20.184 Q 43.976 17.976 43.976 13.74 L 43.976 13.74 L 43.976 13.74 Q 43.976 9.504 46.124 7.32 L 46.124 7.32 L 46.124 7.32 Q 48.272 5.136 51.668 5.136 L 51.668 5.136 L 51.668 5.136 Q 55.064 5.136 57.152 7.284 L 57.152 7.284 L 57.152 7.284 Q 59.24 9.432 59.24 13.788 L 59.24 13.788 L 59.24 13.788 Q 59.24 18.144 57.104 20.268 L 57.104 20.268 L 57.104 20.268 Q 54.968 22.392 51.596 22.392 Z  M 51.608 9.744 L 51.608 9.744 L 51.608 9.744 Q 50.456 9.744 49.676 10.8 L 49.676 10.8 L 49.676 10.8 Q 48.896 11.856 48.896 13.764 L 48.896 13.764 L 48.896 13.764 Q 48.896 15.672 49.64 16.692 L 49.64 16.692 L 49.64 16.692 Q 50.384 17.712 51.596 17.712 L 51.596 17.712 L 51.596 17.712 Q 52.808 17.712 53.564 16.68 L 53.564 16.68 L 53.564 16.68 Q 54.32 15.648 54.32 13.728 L 54.32 13.728 L 54.32 13.728 Q 54.32 11.808 53.54 10.776 L 53.54 10.776 L 53.54 10.776 Q 52.76 9.744 51.608 9.744 Z  M 65.744 16.368 L 65.744 21.816 L 65.744 21.816 Q 65.744 22.2 63.464 22.2 L 63.464 22.2 L 63.464 22.2 Q 61.16 22.2 61.16 21.84 L 61.16 21.84 L 61.16 6.192 L 61.16 6.192 Q 61.16 5.352 62.048 5.352 L 62.048 5.352 L 66.632 5.352 L 66.632 5.352 Q 72.944 5.352 72.944 10.272 L 72.944 10.272 L 72.944 10.272 Q 72.944 11.76 72.368 12.972 L 72.368 12.972 L 72.368 12.972 Q 71.792 14.184 70.736 14.904 L 70.736 14.904 L 73.76 19.944 L 73.76 19.944 Q 73.568 20.52 72.512 21.264 L 72.512 21.264 L 72.512 21.264 Q 71.072 22.296 70.136 22.296 L 70.136 22.296 L 70.136 22.296 Q 69.2 22.296 68.744 21.624 L 68.744 21.624 L 66.488 16.368 L 65.744 16.368 L 65.744 16.368 Z  M 66.248 9.6 L 65.744 9.6 L 65.744 13.2 L 65.864 13.2 L 65.864 13.2 Q 68.144 13.2 68.144 11.304 L 68.144 11.304 L 68.144 11.304 Q 68.144 10.44 67.7 10.02 L 67.7 10.02 L 67.7 10.02 Q 67.256 9.6 66.248 9.6 L 66.248 9.6 L 66.248 9.6 Z  M 82.544 9.72 L 82.544 21.768 L 82.544 21.768 Q 82.544 22.248 80.168 22.248 L 80.168 22.248 L 80.168 22.248 Q 77.792 22.248 77.792 21.768 L 77.792 21.768 L 77.792 9.72 L 74.912 9.72 L 74.912 9.72 Q 74.504 9.72 74.336 8.616 L 74.336 8.616 L 74.336 8.616 Q 74.264 8.088 74.264 7.536 L 74.264 7.536 L 74.264 7.536 Q 74.264 6.984 74.336 6.456 L 74.336 6.456 L 74.336 6.456 Q 74.504 5.352 74.912 5.352 L 74.912 5.352 L 85.352 5.352 L 85.352 5.352 Q 85.76 5.352 85.928 6.456 L 85.928 6.456 L 85.928 6.456 Q 86 6.984 86 7.536 L 86 7.536 L 86 7.536 Q 86 8.088 85.928 8.616 L 85.928 8.616 L 85.928 8.616 Q 85.76 9.72 85.352 9.72 L 85.352 9.72 L 82.544 9.72 L 82.544 9.72 Z " fill-rule="evenodd" fill="rgb(0,0,0)"/></g></svg>