<svg xmlns="http://www.w3.org/2000/svg"><symbol id="icon-arrow-left" viewBox="0 0 512 512"><path d="M352 115.4L331.3 96 160 256l171.3 160 20.7-19.3L201.5 256z"/></symbol><symbol id="icon-arrow-right" viewBox="0 0 512 512"><path d="M160 115.4L180.7 96 352 256 180.7 416 160 396.7 310.5 256z"/></symbol><symbol id="icon-arrow-top" viewBox="0 0 32 32"><path d="M16.714 11.297a1.02 1.02 0 0 0-1.429 0l-8.999 8.976a1.008 1.008 0 1 0 1.428 1.426L16 13.436l8.285 8.264a1.012 1.012 0 0 0 1.429 0 1.008 1.008 0 0 0 0-1.426l-9-8.977z" fill="#121313"/></symbol><symbol id="icon-cart" viewBox="0 0 100 100"><g fill="#353535"><path d="M98.8 26.9c-.7-1.3-1.9-1.9-3.8-1.9H18.3L14.4 8.8c-.6-1.2-1.9-2.5-3.1-2.5H3.1C1.2 6.2 0 7.5 0 9.4s1.2 3.1 3.1 3.1h5.6l4.2 17.9c0 .2.1.4.1.6l5.7 24.6c.1.2.2.4.3.5l3.4 14.5c.6 2.5 2.5 4.4 5 4.4H85c2.5 0 4.4-1.9 5-3.8l10-40c0-1.2-.6-3.1-1.2-4.3zm-15 41.9H28.1l-3-13.8c0-.4 0-.8-.1-1.2l-1.5-6.4L20 31.2h73.1l-9.3 37.6z"/><circle cx="31.2" cy="87.5" r="6.2"/><circle cx="75" cy="87.5" r="6.2"/></g></symbol><symbol id="icon-compare" viewBox="0 0 32 24"><path d="M26 12l-6 6h4c0 1.102-.898 2-2 2H10c-1.102 0-2-.898-2-2v-2H4v2c0 3.309 2.691 6 6 6h12c3.309 0 6-2.691 6-6h4l-6-6zM22 0H10C6.691 0 4 2.691 4 6v.062H0L6 12l6-5.938H8V6c0-1.102.898-2 2-2h12c1.102 0 2 .898 2 2v2h4V6c0-3.309-2.691-6-6-6z" fill="#4e4e50"/></symbol><symbol id="icon-facebook" viewBox="0 0 800 800"><path fill="#3b5998" d="M445 643h-90V419h-75v-87h75v-64q0-55 32-86 30-29 80-29 28 0 67 3v78h-47q-42 0-42 38v60h86l-11 87h-75v224z"/></symbol><symbol id="icon-googleplus" viewBox="0 0 800 800"><path fill="#dd4b39" d="M487 370c21 129-62 237-195 237-114 0-207-93-207-207s93-207 207-207c89 0 138 54 138 54l-56 54s-29-32-82-32c-71 0-128 59-128 131 0 73 57 131 128 131 81 0 113-58 117-90H292v-71h195zm189-59v59h59v60h-59v59h-59v-59h-59v-60h59v-59h59z"/></symbol><symbol id="icon-heart" viewBox="0 0 16 16"><path fill="#353535" d="M8 16c-.1 0-.2 0-.3-.1C7.4 15.7 0 10.1 0 5.8 0 2.8 2.1 1 4.2 1c1.3 0 2.9.7 3.8 2.7.9-2 2.5-2.7 3.8-2.7C13.9 1 16 2.8 16 5.8c0 4.3-7.4 9.9-7.7 10.1-.1.1-.2.1-.3.1zM4.2 2C2.6 2 1 3.4 1 5.8c0 3.4 5.6 8 7 9.1 1.4-1.1 7-5.7 7-9.1C15 3.4 13.4 2 11.8 2S9 3.3 8.5 5.4c-.1.5-.9.5-1 0C7 3.3 5.8 2 4.2 2z"/></symbol><symbol id="icon-home" viewBox="0 0 50 50"><path fill="none" d="M0 0h50v50H0z"/><path fill="none" stroke="#000" stroke-linecap="round" stroke-miterlimit="10" stroke-width="2" d="M44 21v28H6V21"/><path fill="none" stroke="#000" stroke-linecap="round" stroke-miterlimit="10" stroke-width="2" d="M19 49V28h12v21"/><path d="M35 5v3.016l2 2.078V7h2v5.203l2 2.063V5z"/><path fill="none" stroke="#000" stroke-linecap="round" stroke-linejoin="round" stroke-miterlimit="10" stroke-width="2" d="M1.11 25.942L25 1.053l23.89 24.89"/></symbol><symbol id="icon-instagram" viewBox="0 0 800 800"><path fill="#383940" d="M150 400c0-119 0-166 42-208s88-42 208-42 166 0 208 42 42 89 42 208 0 166-42 208-88 42-208 42-166 0-208-42-42-89-42-208zm455 0c0-114 0-148-29-176-29-29-62-29-176-29s-148 0-176 29c-29 29-29 62-29 176s0 148 29 176c29 29 62 29 176 29s148 0 176-29c29-29 29-62 29-176zM400 272a128 128 0 1 1 0 256 128 128 0 0 1 0-256zm0 211c46 0 83-37 83-83s-37-83-83-83-83 37-83 83 37 83 83 83zm163-216c0 16-13 30-30 30-16 0-30-14-30-30 0-17 14-30 30-30 17 0 30 13 30 30z"/></symbol><symbol id="icon-paper-plane" viewBox="0 0 128 128"><path d="M74.508 108.239a2 2 0 0 1-1.81-1.148l-16.863-35.84-35.103-16.135a2.001 2.001 0 0 1 .136-3.691l83.312-31.107a2.002 2.002 0 0 1 2.58 2.554l-30.371 84.047a1.998 1.998 0 0 1-1.788 1.318l-.093.002zM26.772 53.49l31.396 14.432c.429.197.774.539.975.965l15.122 32.139 27.264-75.448L26.772 53.49z"/><path d="M57.334 71.738a2 2 0 0 1-1.414-3.414l47.545-47.546a2 2 0 1 1 2.828 2.828L58.748 71.152a1.992 1.992 0 0 1-1.414.586z"/></symbol><symbol id="icon-quote" viewBox="0 0 32 24"><path d="M32 24V12h-8c0-4.41 3.586-8 8-8V0c-6.617 0-12 5.383-12 12v12h12zm-20 0V12H4c0-4.41 3.586-8 8-8V0C5.383 0 0 5.383 0 12v12h12z" fill="#4e4e50"/></symbol><symbol id="icon-search" viewBox="0 0 100 100"><path fill="#353535" d="M98.8 95L71.2 67.4c6.3-7.1 10.1-16.5 10.1-26.8C81.2 18.1 63.1 0 40.6 0S0 18.1 0 40.6s18.1 40.6 40.6 40.6c10 0 19.1-3.6 26.1-9.5l27.6 27.6c.6.6 1.9.6 2.5.6s1.9 0 1.9-.6c1.3-1.2 1.3-3.1.1-4.3zM6.2 40.6c0-18.8 15.6-34.4 34.4-34.4S75 21.9 75 40.6 59.4 75 40.6 75 6.2 59.4 6.2 40.6z"/></symbol><symbol id="icon-shield" viewBox="0 0 52 52"><path d="M23.36 21.803c0 .539.149.965.447 1.278.299.314.865.615 1.702.905v-4.174c-.672.065-1.198.278-1.579.64-.38.362-.57.812-.57 1.35zm3.582 5.56v4.343c.716-.08 1.283-.305 1.7-.676.419-.37.628-.836.628-1.399s-.164-1.009-.493-1.339-.94-.639-1.835-.929z"/><path d="M50 9.44l-.02-1.01-1.02.03c-8.12.3-22.4-6.28-22.54-6.34l-.42-.2-.42.2c-.14.06-14.42 6.64-22.54 6.34l-1.01-.03L2 9.44c0 .32-.53 32.07 23.57 40.53l.33.11.33-.11C50.32 41.51 50.01 9.76 50 9.44zm-19.387 23.4c-.925.885-2.15 1.367-3.671 1.448v1.737h-1.433v-1.762c-2.046-.225-3.881-1.101-5.508-2.63l1.635-2.098c1.253 1.174 2.544 1.874 3.873 2.099v-4.68c-1.687-.435-2.922-1.006-3.706-1.714-.783-.707-1.175-1.757-1.175-3.148 0-1.39.451-2.529 1.355-3.413.902-.885 2.078-1.367 3.526-1.448v-1.206h1.433v1.23c1.641.129 3.194.732 4.656 1.81l-1.455 2.219c-.985-.756-2.052-1.222-3.201-1.4v4.536h.067c1.716.435 2.977 1.022 3.783 1.761.806.74 1.21 1.814 1.21 3.221s-.464 2.554-1.389 3.438z"/></symbol><symbol id="icon-twitter" viewBox="0 0 800 800"><path fill="#55acee" d="M679 239s-21 34-55 57c7 156-107 329-314 329-103 0-169-50-169-50s81 17 163-45c-83-5-103-77-103-77s23 6 50-2c-93-23-89-110-89-110s23 14 50 14c-84-65-34-148-34-148s76 107 228 116c-22-121 117-177 188-101 37-6 71-27 71-27s-12 41-49 61c30-2 63-17 63-17z"/></symbol><symbol id="icon-view" viewBox="0 0 512 512"><path d="M504.984 478.912L361.365 335.271c28.868-34.715 46.246-79.299 46.246-127.965C407.611 96.672 317.939 7 207.306 7 96.692 7 7 96.672 7 207.306c0 110.608 89.692 200.301 200.306 200.301 48.676 0 93.256-17.379 127.972-46.248L478.896 505l26.088-26.088zM28.085 207.306c0-98.825 80.386-179.221 179.221-179.221 98.815 0 179.221 80.396 179.221 179.221 0 98.831-80.405 179.215-179.221 179.215-98.835 0-179.221-80.384-179.221-179.215z" fill="#425661"/><path fill="#425661" d="M105.181 197.438H305.91v21.084H105.181z"/><path fill="#425661" d="M195.003 107.615h21.084v200.729h-21.084z"/></symbol><symbol id="icon-vk" viewBox="0 0 800 800"><path fill="#4D76A4" d="M393 566c-135 0-208-143-276-285-10-21 6-23 16-23l81-1c12 0 17 9 20 15 13 31 66 142 92 129 18-9 15-107 4-122-7-9-20-12-26-13-5-1 3-11 13-16 18-9 87-9 111-3 28 7 19 32 19 95 0 20-4 50 11 58 24 12 81-101 91-131 3-8 9-11 19-11h85c20 0 27 1 30 8 5 12-9 40-44 87-57 77-65 70-17 114 46 42 55 63 57 66 14 28-11 34-21 34h-76c-9 0-21 0-38-11-29-19-55-70-76-64-17 5-20 34-21 53-1 16-10 21-20 21h-34z"/></symbol></svg>